<svg id="Layer_1" data-name="Layer 1" xmlns="http://www.w3.org/2000/svg" xmlns:xlink="http://www.w3.org/1999/xlink" viewBox="0 0 1964.71 1122.58"><defs><style>.cls-1{fill:none;}.cls-2{fill:#007bff;}.cls-3{fill:#74c6ff;}.cls-4{fill:#ffd576;}.cls-5{fill:silver;}.cls-6{fill:#94d1ff;}.cls-7{fill:#fffa2a;}.cls-8{opacity:0.3;}.cls-9{fill:url(#weather1);}</style><pattern id="weather1" data-name="weather1" x="17.92" y="17.72" width="216" height="216" patternUnits="userSpaceOnUse" viewBox="0 0 216 216"><rect class="cls-1" width="216" height="216"/><rect class="cls-2" width="216" height="216"/><path class="cls-3" d="M57.79,5.28l1.06,1.06a3.69,3.69,0,0,0,.08.46l.14.71-.54-.11L57.35,6.22l.46,0A6.16,6.16,0,0,1,57.79,5.28Z"/><path class="cls-3" d="M71.45-7l.22.24,1,1L71.3-5.93A5.1,5.1,0,0,0,69-5.72,5.27,5.27,0,0,0,67-4.45,5.14,5.14,0,0,0,65.51.15l.14.68L65,.7a5.14,5.14,0,0,0-4.61,1.44A5.21,5.21,0,0,0,59,4.36a5.1,5.1,0,0,0-.18,2L57.79,5.28a6.16,6.16,0,0,0,0,1l-.46,0L58.53,7.4l-.16,0a5.09,5.09,0,0,0-2.45.11,4.31,4.31,0,0,0-.84.33,5.85,5.85,0,0,0-.86.53,5.53,5.53,0,0,0-.52.46,5.16,5.16,0,0,0-1.44,4.61l.14.68L51.71,14a5.13,5.13,0,0,0-4.57,1.45,5.18,5.18,0,0,0-1.53,3.85l0,1.25-.92-.95C42.41,17.16,41,12.81,41.06,8.21a20.47,20.47,0,0,1,1.28-7A18.47,18.47,0,0,1,43.91-2c.18-.28.36-.56.56-.83a16,16,0,0,1,1.75-2.1l.1-.11c.2-.19.4-.39.6-.57a18.3,18.3,0,0,1,5.76-3.5,22.41,22.41,0,0,1,7.15-1.44C64.64-10.71,69.09-9.36,71.45-7Z"/><path class="cls-3" d="M69,22l.28.28-.7.69-.29-.29ZM44.65-6.52a.91.91,0,0,1,1.24.1L71.56,19.25a2.53,2.53,0,0,1,.25,3.52,2.49,2.49,0,0,1-3.53-.17h0L69,21.9h0A1.45,1.45,0,0,0,71,22a1.29,1.29,0,0,0,.37-1,1.62,1.62,0,0,0-.48-1l-15-15h0c0-.11-11.37-11.44-11.22-11.43Z"/><path class="cls-3" d="M159.24,162.35l.43-.09-.95,1.28-.5.18,0-.69a3.38,3.38,0,0,0,0-.45l.86-1.15A5.64,5.64,0,0,1,159.24,162.35Z"/><path class="cls-3" d="M144.54,151.69l-.18.26-.76,1.1,1.23-.36a5,5,0,0,1,6.3,4.95l0,.67.62-.22a5,5,0,0,1,6.11,2.64,4.82,4.82,0,0,1,.44,1.85l.86-1.15a5.64,5.64,0,0,1,.11.92l.43-.09-.95,1.28.15-.06a4.68,4.68,0,0,1,2.32-.23,5,5,0,0,1,.85.19,4.92,4.92,0,0,1,.88.39,5.21,5.21,0,0,1,.55.36,4.89,4.89,0,0,1,2,4.16l0,.66.63-.21a5,5,0,0,1,6.49,4.17l.12,1.19.75-1c1.87-2.59,2.61-6.89,1.92-11.23a19.58,19.58,0,0,0-2.16-6.41,17.63,17.63,0,0,0-1.93-2.83c-.21-.24-.42-.48-.64-.71a16,16,0,0,0-1.94-1.74l-.11-.09c-.21-.16-.43-.31-.65-.46a17.53,17.53,0,0,0-5.92-2.51,21.27,21.27,0,0,0-7-.39C150.46,147.26,146.44,149.15,144.54,151.69Z"/><path class="cls-3" d="M151.55,179.28l-.23.32-.75-.56.23-.3ZM170,148.5c.14,0-9.09,12.24-9,12.34h0l-12.15,16.28a1.55,1.55,0,0,0-.32,1,1.28,1.28,0,0,0,.49.9,1.39,1.39,0,0,0,1.91-.39h0l.75.56h0a2.39,2.39,0,0,1-3.32.65,2.43,2.43,0,0,1-.24-3.36l20.74-27.78a.86.86,0,0,1,1.16-.26Z"/><circle class="cls-4" cx="0.98" cy="55.04" r="8.21"/><line class="cls-4" x1="10.31" y1="55.04" x2="23.99" y2="55.04"/><rect class="cls-4" x="10.31" y="54.02" width="13.68" height="2.03"/><line class="cls-4" x1="9.74" y1="51.83" x2="22.59" y2="47.14"/><polygon class="cls-4" points="10.09 52.79 9.39 50.88 22.24 46.18 22.94 48.09 10.09 52.79"/><line class="cls-4" x1="8.11" y1="49.02" x2="18.57" y2="40.2"/><polygon class="cls-4" points="8.77 49.8 7.46 48.24 17.91 39.42 19.23 40.98 8.77 49.8"/><line class="cls-4" x1="5.62" y1="46.94" x2="12.41" y2="35.07"/><polygon class="cls-4" points="6.5 47.44 4.73 46.44 11.53 34.56 13.29 35.57 6.5 47.44"/><line class="cls-4" x1="2.56" y1="45.84" x2="4.86" y2="32.36"/><polygon class="cls-4" points="3.56 46.01 1.55 45.67 3.86 32.19 5.86 32.53 3.56 46.01"/><line class="cls-4" x1="-0.7" y1="45.86" x2="-3.16" y2="32.4"/><polygon class="cls-4" points="-1.7 46.04 -4.16 32.59 -2.16 32.22 0.3 45.68 -1.7 46.04"/><line class="cls-4" x1="-3.74" y1="46.99" x2="-10.68" y2="35.2"/><polygon class="cls-4" points="-4.62 47.51 -11.55 35.71 -9.8 34.69 -2.87 46.48 -4.62 47.51"/><line class="cls-4" x1="-6.22" y1="49.1" x2="-16.78" y2="40.41"/><polygon class="cls-4" points="-6.86 49.89 -17.42 41.19 -16.13 39.62 -5.57 48.32 -6.86 49.89"/><line class="cls-4" x1="-7.81" y1="51.94" x2="-20.72" y2="47.39"/><polygon class="cls-4" points="-8.15 52.9 -21.05 48.35 -20.38 46.43 -7.48 50.98 -8.15 52.9"/><line class="cls-4" x1="-8.34" y1="55.14" x2="-22.02" y2="55.3"/><polygon class="cls-4" points="-22.01 56.32 -22.04 54.29 -8.36 54.13 -8.33 56.16 -22.01 56.32"/><line class="cls-4" x1="-7.74" y1="58.34" x2="-20.53" y2="63.18"/><polygon class="cls-4" points="-20.17 64.13 -20.89 62.23 -8.1 57.39 -7.38 59.29 -20.17 64.13"/><line class="cls-4" x1="-6.08" y1="61.13" x2="-16.43" y2="70.07"/><polygon class="cls-4" points="-15.77 70.84 -17.09 69.31 -6.74 60.36 -5.41 61.9 -15.77 70.84"/><line class="cls-4" x1="-3.55" y1="63.18" x2="-10.21" y2="75.14"/><polygon class="cls-4" points="-9.32 75.63 -11.1 74.64 -4.44 62.69 -2.67 63.68 -9.32 75.63"/><line class="cls-4" x1="-0.48" y1="64.25" x2="-2.63" y2="77.76"/><polygon class="cls-4" points="-1.63 77.92 -3.63 77.6 -1.49 64.09 0.52 64.41 -1.63 77.92"/><line class="cls-4" x1="2.77" y1="64.19" x2="5.39" y2="77.62"/><polygon class="cls-4" points="4.39 77.81 1.77 64.38 3.77 64 6.38 77.42 4.39 77.81"/><line class="cls-4" x1="5.8" y1="63.02" x2="12.87" y2="74.73"/><polygon class="cls-4" points="12 75.26 4.93 63.55 6.67 62.5 13.74 74.21 12 75.26"/><line class="cls-4" x1="8.25" y1="60.88" x2="18.91" y2="69.46"/><polygon class="cls-4" points="18.27 70.25 7.61 61.67 8.89 60.09 19.55 68.67 18.27 70.25"/><line class="cls-4" x1="9.82" y1="58.03" x2="22.77" y2="62.43"/><polygon class="cls-4" points="22.45 63.39 9.49 58.99 10.14 57.07 23.1 61.47 22.45 63.39"/><circle class="cls-4" cx="108.5" cy="161.76" r="8.21"/><line class="cls-4" x1="117.83" y1="161.76" x2="131.51" y2="161.76"/><rect class="cls-4" x="117.83" y="160.74" width="13.68" height="2.03"/><line class="cls-4" x1="117.26" y1="158.56" x2="130.11" y2="153.86"/><polygon class="cls-4" points="117.61 159.51 116.91 157.6 129.76 152.91 130.46 154.81 117.61 159.51"/><line class="cls-4" x1="115.63" y1="155.74" x2="126.09" y2="146.92"/><polygon class="cls-4" points="116.28 156.52 114.97 154.97 125.43 146.15 126.74 147.7 116.28 156.52"/><line class="cls-4" x1="113.13" y1="153.66" x2="119.93" y2="141.79"/><polygon class="cls-4" points="114.01 154.17 112.25 153.16 119.04 141.28 120.81 142.29 114.01 154.17"/><line class="cls-4" x1="110.07" y1="152.56" x2="112.38" y2="139.08"/><polygon class="cls-4" points="111.07 152.74 109.07 152.39 111.38 138.91 113.38 139.25 111.07 152.74"/><line class="cls-4" x1="106.82" y1="152.58" x2="104.36" y2="139.13"/><polygon class="cls-4" points="105.82 152.77 103.36 139.31 105.36 138.94 107.82 152.4 105.82 152.77"/><line class="cls-4" x1="103.77" y1="153.72" x2="96.84" y2="141.92"/><polygon class="cls-4" points="102.9 154.23 95.97 142.44 97.72 141.41 104.65 153.2 102.9 154.23"/><line class="cls-4" x1="101.3" y1="155.83" x2="90.74" y2="147.13"/><polygon class="cls-4" points="100.65 156.61 90.09 147.91 91.39 146.34 101.95 155.04 100.65 156.61"/><line class="cls-4" x1="99.7" y1="158.66" x2="86.8" y2="154.11"/><polygon class="cls-4" points="99.36 159.62 86.46 155.07 87.14 153.16 100.04 157.7 99.36 159.62"/><line class="cls-4" x1="99.17" y1="161.87" x2="85.49" y2="162.03"/><polygon class="cls-4" points="85.5 163.04 85.48 161.01 99.16 160.85 99.18 162.88 85.5 163.04"/><line class="cls-4" x1="99.78" y1="165.06" x2="86.98" y2="169.91"/><polygon class="cls-4" points="87.34 170.86 86.62 168.96 99.42 164.11 100.14 166.01 87.34 170.86"/><line class="cls-4" x1="101.44" y1="167.85" x2="91.09" y2="176.8"/><polygon class="cls-4" points="91.75 177.56 90.42 176.03 100.78 167.09 102.1 168.62 91.75 177.56"/><line class="cls-4" x1="103.96" y1="169.91" x2="97.31" y2="181.86"/><polygon class="cls-4" points="98.19 182.35 96.42 181.37 103.07 169.41 104.85 170.4 98.19 182.35"/><line class="cls-4" x1="107.03" y1="170.97" x2="104.89" y2="184.48"/><polygon class="cls-4" points="105.89 184.64 103.88 184.32 106.03 170.81 108.04 171.13 105.89 184.64"/><line class="cls-4" x1="110.29" y1="170.91" x2="112.9" y2="184.34"/><polygon class="cls-4" points="111.91 184.53 109.29 171.11 111.28 170.72 113.9 184.15 111.91 184.53"/><line class="cls-4" x1="113.32" y1="169.74" x2="120.39" y2="181.46"/><polygon class="cls-4" points="119.52 181.98 112.45 170.27 114.19 169.22 121.26 180.93 119.52 181.98"/><line class="cls-4" x1="115.77" y1="167.6" x2="126.43" y2="176.18"/><polygon class="cls-4" points="125.79 176.97 115.13 168.4 116.4 166.81 127.06 175.39 125.79 176.97"/><line class="cls-4" x1="117.33" y1="164.75" x2="130.29" y2="169.15"/><polygon class="cls-4" points="129.96 170.11 117.01 165.72 117.66 163.79 130.61 168.19 129.96 170.11"/><path class="cls-5" d="M-15.43,10.71s9.76,4.76,15.15,0c0,0,1.52,2.78,4,.36,0,0,1.52,2.78,3.77.09,0,0,13.55,5.38,16.33-7S11.38-3.11,11.38-3.11s7.27-9.78-8.07-9.78S-6.38-5.62-6.38-5.62-13.83-10-13.92-6c0,0-7-4.58-11-1.26s-3,6.64-3,6.64S-27.61,6.4-15.43,10.71Z"/><path class="cls-5" d="M119.65,116.54s-9.76,4.76-15.15,0c0,0-1.52,2.78-4,.36,0,0-1.52,2.78-3.76.09,0,0-13.55,5.38-16.34-7s12.48-7.27,12.48-7.27-7.27-9.78,8.07-9.78,9.7,7.27,9.7,7.27,7.44-4.4,7.53-.36c0,0,7-4.58,11-1.26s3,6.65,3,6.65S131.83,112.23,119.65,116.54Z"/><path class="cls-5" d="M14.48,173.75s-9.76,4.76-15.14,0c0,0-1.53,2.79-4,.36,0,0-1.53,2.79-3.77.09,0,0-13.55,5.39-16.33-7s12.47-7.27,12.47-7.27-7.27-9.78,8.08-9.78,9.69,7.27,9.69,7.27,7.45-4.39,7.54-.36c0,0,7-4.57,11-1.25s3,6.64,3,6.64S26.67,169.45,14.48,173.75Z"/><circle class="cls-4" cx="108.5" cy="0.7" r="8.21"/><line class="cls-4" x1="117.83" y1="0.7" x2="131.51" y2="0.7"/><rect class="cls-4" x="117.83" y="-0.31" width="13.68" height="2.03"/><line class="cls-4" x1="117.26" y1="-2.5" x2="130.11" y2="-7.19"/><polygon class="cls-4" points="117.61 -1.54 116.91 -3.45 129.76 -8.15 130.46 -6.24 117.61 -1.54"/><line class="cls-4" x1="115.63" y1="-5.31" x2="126.09" y2="-14.13"/><polygon class="cls-4" points="116.28 -4.53 114.97 -6.09 125.43 -14.91 126.74 -13.36 116.28 -4.53"/><line class="cls-4" x1="113.13" y1="-7.39" x2="119.92" y2="-19.27"/><polygon class="cls-4" points="114.01 -6.89 112.25 -7.9 119.04 -19.77 120.81 -18.76 114.01 -6.89"/><line class="cls-4" x1="110.07" y1="-8.49" x2="112.38" y2="-21.98"/><polygon class="cls-4" points="111.07 -8.32 109.07 -8.66 111.37 -22.15 113.38 -21.8 111.07 -8.32"/><line class="cls-4" x1="106.82" y1="-8.47" x2="104.36" y2="-21.93"/><polygon class="cls-4" points="105.82 -8.29 103.36 -21.75 105.36 -22.11 107.82 -8.65 105.82 -8.29"/><line class="cls-4" x1="103.77" y1="-7.34" x2="96.84" y2="-19.13"/><polygon class="cls-4" points="102.9 -6.82 95.96 -18.62 97.72 -19.65 104.65 -7.85 102.9 -6.82"/><line class="cls-4" x1="101.3" y1="-5.23" x2="90.74" y2="-13.93"/><polygon class="cls-4" points="100.65 -4.44 90.09 -13.14 91.39 -14.71 101.94 -6.01 100.65 -4.44"/><line class="cls-4" x1="99.7" y1="-2.4" x2="86.8" y2="-6.94"/><polygon class="cls-4" points="99.36 -1.44 86.46 -5.98 87.14 -7.9 100.04 -3.35 99.36 -1.44"/><line class="cls-4" x1="99.17" y1="0.81" x2="85.49" y2="0.97"/><polygon class="cls-4" points="85.5 1.99 85.48 -0.04 99.16 -0.2 99.18 1.83 85.5 1.99"/><line class="cls-4" x1="99.78" y1="4.01" x2="86.98" y2="8.85"/><polygon class="cls-4" points="87.34 9.8 86.62 7.9 99.42 3.06 100.14 4.96 87.34 9.8"/><line class="cls-4" x1="101.44" y1="6.8" x2="91.09" y2="15.74"/><polygon class="cls-4" points="91.75 16.51 90.42 14.97 100.78 6.03 102.1 7.57 91.75 16.51"/><line class="cls-4" x1="103.96" y1="8.85" x2="97.31" y2="20.8"/><polygon class="cls-4" points="98.19 21.3 96.42 20.31 103.07 8.36 104.85 9.35 98.19 21.3"/><line class="cls-4" x1="107.03" y1="9.91" x2="104.89" y2="23.42"/><polygon class="cls-4" points="105.89 23.58 103.88 23.27 106.03 9.75 108.04 10.07 105.89 23.58"/><line class="cls-4" x1="110.28" y1="9.86" x2="112.9" y2="23.28"/><polygon class="cls-4" points="111.91 23.48 109.29 10.05 111.28 9.66 113.9 23.09 111.91 23.48"/><line class="cls-4" x1="113.32" y1="8.69" x2="120.39" y2="20.4"/><polygon class="cls-4" points="119.52 20.93 112.45 9.21 114.19 8.16 121.26 19.88 119.52 20.93"/><line class="cls-4" x1="115.77" y1="6.55" x2="126.43" y2="15.12"/><polygon class="cls-4" points="125.79 15.91 115.13 7.34 116.4 5.76 127.06 14.33 125.79 15.91"/><line class="cls-4" x1="117.33" y1="3.7" x2="130.29" y2="8.09"/><polygon class="cls-4" points="129.96 9.06 117 4.66 117.66 2.74 130.61 7.13 129.96 9.06"/><path class="cls-3" d="M-1.91,112.83a3.29,3.29,0,0,1,.43-.09l-1,1.27-.5.18,0-.68a3.38,3.38,0,0,0,0-.45l.86-1.15A7,7,0,0,1-1.91,112.83Z"/><path class="cls-3" d="M-16.62,102.17l-.18.25-.75,1.1,1.22-.35a4.9,4.9,0,0,1,2.19-.12A5.22,5.22,0,0,1-12,104a4.9,4.9,0,0,1,2,4.15l0,.67.63-.22a4.87,4.87,0,0,1,4.55.72,5.18,5.18,0,0,1,1.56,1.92,4.91,4.91,0,0,1,.43,1.85l.86-1.15a7,7,0,0,1,.12.92,3.29,3.29,0,0,1,.43-.09l-1,1.27.14-.05A4.85,4.85,0,0,1,0,113.72a4.89,4.89,0,0,1,.84.2,4.62,4.62,0,0,1,.88.39,4.83,4.83,0,0,1,.56.36,4.91,4.91,0,0,1,2,4.16l0,.66.62-.22a5,5,0,0,1,6.49,4.18l.13,1.18.74-1c1.88-2.58,2.62-6.88,1.93-11.22A19.75,19.75,0,0,0,12,106a16.6,16.6,0,0,0-1.93-2.83c-.2-.24-.41-.48-.63-.71a15.42,15.42,0,0,0-2-1.75l-.11-.08c-.21-.16-.43-.31-.65-.46A17.5,17.5,0,0,0,.84,97.63a21.56,21.56,0,0,0-7-.38C-10.69,97.74-14.72,99.62-16.62,102.17Z"/><path class="cls-3" d="M-9.6,129.76l-.24.31-.75-.56.23-.3ZM8.8,99c.14,0-9.09,12.23-9,12.34h0L-12.4,127.6a1.54,1.54,0,0,0-.31,1.05,1.21,1.21,0,0,0,.48.89,1.38,1.38,0,0,0,1.91-.39h0l.74.56h0a2.36,2.36,0,0,1-3.31.65,2.41,2.41,0,0,1-.25-3.36L7.62,99.22A.87.87,0,0,1,8.78,99Z"/><path class="cls-6" d="M102.8,48.27a.62.62,0,0,1-.46-.19L98.7,44.44a.65.65,0,0,1,0-.93.67.67,0,0,1,.93,0l3.64,3.64a.67.67,0,0,1,0,.93A.66.66,0,0,1,102.8,48.27Z"/><path class="cls-6" d="M105.59,47.42a.66.66,0,0,1-.47-.19l-2.86-2.86a.67.67,0,0,1,0-.93.65.65,0,0,1,.93,0l2.86,2.86a.66.66,0,0,1-.46,1.12Z"/><path class="cls-6" d="M108.78,47.49a.66.66,0,0,1-.47-.19l-3.23-3.23a.67.67,0,0,1,0-.93.65.65,0,0,1,.93,0l3.23,3.23a.65.65,0,0,1,0,.93A.62.62,0,0,1,108.78,47.49Z"/><path class="cls-6" d="M107.33,52.13a.62.62,0,0,1-.46-.19l-2.53-2.52a.66.66,0,0,1,.93-.93L107.8,51a.67.67,0,0,1,0,.93A.66.66,0,0,1,107.33,52.13Z"/><path class="cls-6" d="M104,53.51a.7.7,0,0,1-.47-.19l-3.82-3.83a.66.66,0,0,1,.93-.93l3.82,3.82a.66.66,0,0,1,0,.94A.68.68,0,0,1,104,53.51Z"/><path class="cls-6" d="M103.21,56.55a.62.62,0,0,1-.46-.19l-2.64-2.64a.65.65,0,0,1,0-.93.67.67,0,0,1,.93,0l2.64,2.64a.67.67,0,0,1,0,.93A.66.66,0,0,1,103.21,56.55Z"/><path class="cls-6" d="M108.79,57.43a.66.66,0,0,1-.47-.19l-2.2-2.2a.67.67,0,0,1,0-.93.65.65,0,0,1,.93,0l2.2,2.2a.65.65,0,0,1,0,.93A.63.63,0,0,1,108.79,57.43Z"/><path class="cls-6" d="M112.86,57.81a.63.63,0,0,1-.46-.19l-3.23-3.23a.66.66,0,1,1,.93-.93l3.23,3.23a.67.67,0,0,1,0,.93A.66.66,0,0,1,112.86,57.81Z"/><path class="cls-6" d="M113.2,53.62a.66.66,0,0,1-.47-.19l-3.86-3.86a.66.66,0,0,1,.93-.93l3.86,3.86a.66.66,0,0,1-.46,1.12Z"/><path class="cls-6" d="M114.74,49.93a.67.67,0,0,1-.47-.2l-3.47-3.47a.66.66,0,0,1,.93-.93l3.47,3.47a.65.65,0,0,1,0,.93A.66.66,0,0,1,114.74,49.93Z"/><path class="cls-6" d="M118.06,59.45a.67.67,0,0,1-.47-.2l-3.67-3.67a.66.66,0,1,1,.93-.93l3.67,3.67a.65.65,0,0,1,0,.93A.63.63,0,0,1,118.06,59.45Z"/><path class="cls-6" d="M117.28,54.29a.67.67,0,0,1-.47-.2l-2.15-2.15a.66.66,0,1,1,.93-.93l2.15,2.15a.66.66,0,0,1,0,.93A.67.67,0,0,1,117.28,54.29Z"/><path class="cls-6" d="M109.15,61.53a.67.67,0,0,1-.47-.2l-3.52-3.52a.66.66,0,1,1,.93-.93l3.53,3.52a.67.67,0,0,1-.47,1.13Z"/><path class="cls-6" d="M104,60.93a.62.62,0,0,1-.46-.19l-3.33-3.32a.67.67,0,0,1,0-.93.65.65,0,0,1,.93,0l3.33,3.32a.67.67,0,0,1,0,.93A.66.66,0,0,1,104,60.93Z"/><path class="cls-6" d="M98.12,51.61a.67.67,0,0,1-.47-.2L94.84,48.6a.66.66,0,0,1,.93-.93l2.81,2.81a.65.65,0,0,1,0,.93A.66.66,0,0,1,98.12,51.61Z"/><path class="cls-6" d="M97.86,55.44a.7.7,0,0,1-.46-.19l-2.78-2.79a.66.66,0,0,1,.93-.93l2.78,2.78a.66.66,0,0,1,0,.94A.7.7,0,0,1,97.86,55.44Z"/><path class="cls-6" d="M98,59.62a.66.66,0,0,1-.47-.19l-2.74-2.74a.66.66,0,1,1,.93-.93l2.74,2.74a.65.65,0,0,1,0,.93A.63.63,0,0,1,98,59.62Z"/><path class="cls-6" d="M103.8,65.76a.7.7,0,0,1-.46-.19l-3.82-3.83a.66.66,0,0,1,.93-.93l3.82,3.82a.66.66,0,0,1,0,.94A.7.7,0,0,1,103.8,65.76Z"/><path class="cls-6" d="M98.52,64a.63.63,0,0,1-.46-.19L95,60.78a.66.66,0,1,1,.93-.93L99,62.92A.66.66,0,0,1,98.52,64Z"/><path class="cls-6" d="M108.56,66a.66.66,0,0,1-.47-.19L105.6,63.3a.67.67,0,0,1,0-.93.65.65,0,0,1,.93,0L109,64.86a.66.66,0,0,1-.46,1.12Z"/><path class="cls-6" d="M113.21,62.3a.7.7,0,0,1-.47-.19l-2.53-2.54a.66.66,0,0,1,.93-.93l2.53,2.54a.65.65,0,0,1,0,.93A.68.68,0,0,1,113.21,62.3Z"/><path class="cls-6" d="M113,66.17a.66.66,0,0,1-.47-.19l-2.32-2.33a.65.65,0,0,1,0-.93.67.67,0,0,1,.93,0l2.32,2.33a.66.66,0,0,1-.46,1.12Z"/><path class="cls-6" d="M117.05,62.58a.65.65,0,0,1-.46-.19l-2.82-2.82a.66.66,0,0,1,.93-.93l2.82,2.82a.66.66,0,0,1-.47,1.12Z"/><path class="cls-6" d="M109.37,44.08a.68.68,0,0,1-.46-.19l-3.31-3.31a.66.66,0,1,1,.93-.93L109.84,43a.67.67,0,0,1,0,.93A.7.7,0,0,1,109.37,44.08Z"/><path class="cls-6" d="M114.38,45.44a.66.66,0,0,1-.47-.19l-4.08-4.07a.66.66,0,0,1,.94-.93l4.07,4.07a.66.66,0,0,1-.46,1.12Z"/><path class="cls-6" d="M119.27,50.82a.67.67,0,0,1-.47-.2l-3.06-3.06a.66.66,0,1,1,.93-.93l3.06,3.06a.65.65,0,0,1,0,.93A.66.66,0,0,1,119.27,50.82Z"/><path class="cls-6" d="M120.7,54.65a.66.66,0,0,1-.47-.19l-3-3a.66.66,0,1,1,.93-.93l3,3a.67.67,0,0,1,0,.93A.66.66,0,0,1,120.7,54.65Z"/><path class="cls-6" d="M120.7,58.44a.66.66,0,0,1-.46-.2L118,56a.67.67,0,0,1,0-.93.65.65,0,0,1,.93,0l2.24,2.23a.65.65,0,0,1,0,.93A.67.67,0,0,1,120.7,58.44Z"/><path class="cls-6" d="M118.51,46a.66.66,0,0,1-.46-.2l-3.61-3.61a.65.65,0,0,1,0-.93.67.67,0,0,1,.93,0L119,44.91a.65.65,0,0,1,0,.93A.67.67,0,0,1,118.51,46Z"/><path class="cls-6" d="M98.21,47.37a.66.66,0,0,1-.46-.2L94.62,44a.66.66,0,0,1,.93-.93l3.13,3.13a.65.65,0,0,1,0,.93A.67.67,0,0,1,98.21,47.37Z"/><path class="cls-6" d="M154.58,105.81a.65.65,0,0,1-.46-.19L150.48,102a.65.65,0,0,1,0-.93.67.67,0,0,1,.93,0l3.64,3.64a.66.66,0,0,1-.47,1.12Z"/><path class="cls-6" d="M157.37,105a.66.66,0,0,1-.47-.19L154,101.91A.66.66,0,1,1,155,101l2.85,2.86a.65.65,0,0,1,0,.93A.62.62,0,0,1,157.37,105Z"/><path class="cls-6" d="M160.56,105a.66.66,0,0,1-.47-.19l-3.22-3.23a.66.66,0,0,1,.93-.93l3.23,3.23a.67.67,0,0,1,0,.93A.66.66,0,0,1,160.56,105Z"/><path class="cls-6" d="M159.11,109.67a.65.65,0,0,1-.46-.19L156.12,107a.67.67,0,0,1,0-.93.65.65,0,0,1,.93,0l2.53,2.52a.66.66,0,0,1-.47,1.12Z"/><path class="cls-6" d="M155.81,111.05a.7.7,0,0,1-.47-.19L151.52,107a.66.66,0,0,1,.93-.93l3.83,3.82a.68.68,0,0,1,0,.94A.7.7,0,0,1,155.81,111.05Z"/><path class="cls-6" d="M155,114.09a.65.65,0,0,1-.46-.19l-2.64-2.64a.65.65,0,0,1,0-.93.67.67,0,0,1,.93,0l2.64,2.64a.66.66,0,0,1-.47,1.12Z"/><path class="cls-6" d="M160.57,115a.66.66,0,0,1-.47-.19l-2.19-2.2a.66.66,0,0,1,.93-.93l2.2,2.2a.67.67,0,0,1,0,.93A.66.66,0,0,1,160.57,115Z"/><path class="cls-6" d="M164.64,115.35a.65.65,0,0,1-.46-.19L161,111.93a.66.66,0,0,1,.93-.93l3.23,3.23a.66.66,0,0,1-.47,1.12Z"/><path class="cls-6" d="M165,111.16a.7.7,0,0,1-.47-.19l-3.86-3.86a.68.68,0,0,1,0-.94.67.67,0,0,1,.93,0l3.86,3.87a.65.65,0,0,1,0,.93A.66.66,0,0,1,165,111.16Z"/><path class="cls-6" d="M166.52,107.47a.67.67,0,0,1-.47-.2l-3.47-3.47a.67.67,0,0,1,0-.93.65.65,0,0,1,.93,0l3.47,3.47a.65.65,0,0,1,0,.93A.63.63,0,0,1,166.52,107.47Z"/><path class="cls-6" d="M169.84,117a.63.63,0,0,1-.46-.2l-3.68-3.67a.66.66,0,0,1,.93-.93l3.68,3.67a.67.67,0,0,1-.47,1.13Z"/><path class="cls-6" d="M169.06,111.83a.63.63,0,0,1-.46-.2l-2.16-2.15a.66.66,0,1,1,.94-.93l2.15,2.15a.67.67,0,0,1-.47,1.13Z"/><path class="cls-6" d="M160.93,119.07a.65.65,0,0,1-.46-.2l-3.53-3.52a.66.66,0,1,1,.93-.93l3.53,3.52a.65.65,0,0,1,0,.93A.67.67,0,0,1,160.93,119.07Z"/><path class="cls-6" d="M155.75,118.47a.63.63,0,0,1-.46-.19L152,115a.66.66,0,0,1,.93-.93l3.32,3.32a.66.66,0,0,1-.47,1.12Z"/><path class="cls-6" d="M149.9,109.15a.67.67,0,0,1-.47-.2l-2.81-2.81a.66.66,0,0,1,.93-.93l2.81,2.81a.67.67,0,0,1-.46,1.13Z"/><path class="cls-6" d="M149.65,113a.7.7,0,0,1-.47-.19L146.4,110a.66.66,0,0,1,.93-.93l2.78,2.78a.66.66,0,0,1,0,.94A.68.68,0,0,1,149.65,113Z"/><path class="cls-6" d="M149.75,117.16a.66.66,0,0,1-.47-.19l-2.73-2.74a.65.65,0,0,1,0-.93.66.66,0,0,1,.93,0l2.73,2.74a.65.65,0,0,1,0,.93A.62.62,0,0,1,149.75,117.16Z"/><path class="cls-6" d="M155.59,123.3a.7.7,0,0,1-.47-.19l-3.82-3.83a.66.66,0,1,1,.93-.93l3.82,3.82a.65.65,0,0,1,0,.93A.66.66,0,0,1,155.59,123.3Z"/><path class="cls-6" d="M150.31,121.58a.66.66,0,0,1-.47-.19l-3.07-3.07a.66.66,0,0,1,.93-.93l3.07,3.07a.66.66,0,0,1-.46,1.12Z"/><path class="cls-6" d="M160.34,123.52a.66.66,0,0,1-.47-.19l-2.49-2.49a.66.66,0,1,1,.94-.93l2.48,2.49a.65.65,0,0,1,0,.93A.63.63,0,0,1,160.34,123.52Z"/><path class="cls-6" d="M165,119.84a.7.7,0,0,1-.47-.19L162,117.11a.66.66,0,1,1,.93-.93l2.54,2.53a.68.68,0,0,1,0,.94A.7.7,0,0,1,165,119.84Z"/><path class="cls-6" d="M164.78,123.71a.66.66,0,0,1-.47-.19L162,121.19a.65.65,0,0,1,0-.93.67.67,0,0,1,.93,0l2.32,2.33a.65.65,0,0,1-.46,1.12Z"/><path class="cls-6" d="M168.84,120.12a.66.66,0,0,1-.47-.19l-2.82-2.82a.66.66,0,1,1,.93-.93L169.3,119a.66.66,0,0,1-.46,1.12Z"/><path class="cls-6" d="M161.16,101.62a.7.7,0,0,1-.47-.19l-3.3-3.31a.66.66,0,1,1,.93-.93l3.3,3.31a.65.65,0,0,1,0,.93A.7.7,0,0,1,161.16,101.62Z"/><path class="cls-6" d="M166.16,103a.66.66,0,0,1-.47-.19l-4.07-4.07a.66.66,0,1,1,.93-.93l4.07,4.07a.65.65,0,0,1,0,.93A.63.63,0,0,1,166.16,103Z"/><path class="cls-6" d="M171.05,108.36a.67.67,0,0,1-.47-.2l-3.06-3.06a.66.66,0,0,1,.93-.93l3.06,3.06a.67.67,0,0,1-.46,1.13Z"/><path class="cls-6" d="M172.48,112.19A.62.62,0,0,1,172,112l-3-3a.66.66,0,1,1,.93-.93l3,3a.67.67,0,0,1,0,.93A.66.66,0,0,1,172.48,112.19Z"/><path class="cls-6" d="M172.49,116a.67.67,0,0,1-.47-.2l-2.24-2.23a.66.66,0,0,1,.94-.93l2.23,2.23a.65.65,0,0,1,0,.93A.66.66,0,0,1,172.49,116Z"/><path class="cls-6" d="M170.3,103.58a.67.67,0,0,1-.47-.2l-3.61-3.61a.65.65,0,0,1,0-.93.67.67,0,0,1,.93,0l3.61,3.61a.65.65,0,0,1,0,.93A.66.66,0,0,1,170.3,103.58Z"/><path class="cls-6" d="M150,104.91a.67.67,0,0,1-.47-.2l-3.13-3.13a.66.66,0,0,1,.93-.93l3.13,3.13a.67.67,0,0,1-.46,1.13Z"/><path class="cls-6" d="M54.72,105.6a.66.66,0,0,1-.47-1.12l3.64-3.64a.66.66,0,0,1,.93.93l-3.64,3.64A.63.63,0,0,1,54.72,105.6Z"/><path class="cls-6" d="M55.57,108.38a.66.66,0,0,1-.47-.19.67.67,0,0,1,0-.93L58,104.4a.67.67,0,0,1,.93,0,.65.65,0,0,1,0,.93L56,108.19A.66.66,0,0,1,55.57,108.38Z"/><path class="cls-6" d="M55.5,111.58a.67.67,0,0,1-.47-.2.65.65,0,0,1,0-.93l3.23-3.23a.67.67,0,0,1,.93,0,.65.65,0,0,1,0,.93L56,111.38A.66.66,0,0,1,55.5,111.58Z"/><path class="cls-6" d="M50.86,110.13a.7.7,0,0,1-.47-.19.66.66,0,0,1,0-.94l2.53-2.52a.65.65,0,0,1,.93,0,.67.67,0,0,1,0,.93l-2.53,2.53A.7.7,0,0,1,50.86,110.13Z"/><path class="cls-6" d="M49.48,106.83A.67.67,0,0,1,49,105.7l3.82-3.82a.66.66,0,1,1,.93.93L50,106.63A.67.67,0,0,1,49.48,106.83Z"/><path class="cls-6" d="M46.44,106a.7.7,0,0,1-.47-.19.68.68,0,0,1,0-.94l2.64-2.63a.66.66,0,1,1,.93.93l-2.64,2.64A.66.66,0,0,1,46.44,106Z"/><path class="cls-6" d="M45.56,111.59a.67.67,0,0,1-.47-.2.65.65,0,0,1,0-.93l2.2-2.2a.67.67,0,0,1,.93,0,.65.65,0,0,1,0,.93l-2.2,2.2A.65.65,0,0,1,45.56,111.59Z"/><path class="cls-6" d="M45.18,115.66a.66.66,0,0,1-.47-1.12l3.23-3.23a.66.66,0,0,1,.93.93l-3.23,3.23A.65.65,0,0,1,45.18,115.66Z"/><path class="cls-6" d="M49.37,116a.62.62,0,0,1-.46-.19.65.65,0,0,1,0-.93L52.77,111a.65.65,0,0,1,.93,0,.67.67,0,0,1,0,.93l-3.86,3.86A.66.66,0,0,1,49.37,116Z"/><path class="cls-6" d="M53.06,117.54a.66.66,0,0,1-.46-.2.65.65,0,0,1,0-.93l3.47-3.47a.66.66,0,0,1,.93.93l-3.47,3.47A.67.67,0,0,1,53.06,117.54Z"/><path class="cls-6" d="M43.54,120.86a.68.68,0,0,1-.46-.19.66.66,0,0,1,0-.94l3.67-3.67a.66.66,0,0,1,.93.93L44,120.67A.7.7,0,0,1,43.54,120.86Z"/><path class="cls-6" d="M48.7,120.08a.67.67,0,0,1-.46-1.13l2.15-2.15a.66.66,0,1,1,.93.93l-2.15,2.15A.67.67,0,0,1,48.7,120.08Z"/><path class="cls-6" d="M41.46,112a.7.7,0,0,1-.46-.19.65.65,0,0,1,0-.93l3.53-3.53a.65.65,0,0,1,.93,0,.67.67,0,0,1,0,.93l-3.53,3.53A.7.7,0,0,1,41.46,112Z"/><path class="cls-6" d="M42.06,106.77a.66.66,0,0,1-.47-.19.67.67,0,0,1,0-.93l3.33-3.33a.66.66,0,1,1,.93.93l-3.33,3.33A.62.62,0,0,1,42.06,106.77Z"/><path class="cls-6" d="M51.38,100.91a.66.66,0,0,1-.46-1.12L53.73,97a.66.66,0,1,1,.93.93l-2.81,2.81A.66.66,0,0,1,51.38,100.91Z"/><path class="cls-6" d="M47.55,100.66a.63.63,0,0,1-.46-.19.65.65,0,0,1,0-.93l2.78-2.78a.66.66,0,1,1,.93.93L48,100.47A.66.66,0,0,1,47.55,100.66Z"/><path class="cls-6" d="M43.37,100.77a.67.67,0,0,1-.47-.2.65.65,0,0,1,0-.93l2.74-2.74a.67.67,0,0,1,.93,0,.65.65,0,0,1,0,.93l-2.74,2.74A.65.65,0,0,1,43.37,100.77Z"/><path class="cls-6" d="M37.23,106.6a.63.63,0,0,1-.46-.19.65.65,0,0,1,0-.93l3.82-3.82a.66.66,0,1,1,.93.93l-3.82,3.82A.66.66,0,0,1,37.23,106.6Z"/><path class="cls-6" d="M39,101.32a.66.66,0,0,1-.47-.19.67.67,0,0,1,0-.93l3.08-3.07a.65.65,0,0,1,.93,0,.67.67,0,0,1,0,.93l-3.08,3.07A.62.62,0,0,1,39,101.32Z"/><path class="cls-6" d="M37,111.35a.66.66,0,0,1-.47-.19.67.67,0,0,1,0-.93L39,107.74a.67.67,0,0,1,.93,0,.65.65,0,0,1,0,.93l-2.49,2.49A.62.62,0,0,1,37,111.35Z"/><path class="cls-6" d="M40.69,116a.63.63,0,0,1-.46-.2.65.65,0,0,1,0-.93l2.53-2.53a.66.66,0,0,1,.93.93l-2.53,2.53A.67.67,0,0,1,40.69,116Z"/><path class="cls-6" d="M36.82,115.79a.66.66,0,0,1-.47-.19.67.67,0,0,1,0-.93l2.33-2.32a.66.66,0,0,1,.93.93l-2.33,2.32A.62.62,0,0,1,36.82,115.79Z"/><path class="cls-6" d="M40.41,119.85a.66.66,0,0,1-.47-.19.67.67,0,0,1,0-.93l2.82-2.82a.66.66,0,0,1,.93.93l-2.82,2.82A.62.62,0,0,1,40.41,119.85Z"/><path class="cls-6" d="M58.91,112.17a.62.62,0,0,1-.46-.19.65.65,0,0,1,0-.93l3.3-3.31a.67.67,0,0,1,.93,0,.65.65,0,0,1,0,.93L59.38,112A.66.66,0,0,1,58.91,112.17Z"/><path class="cls-6" d="M57.55,117.17a.66.66,0,0,1-.47-.19.67.67,0,0,1,0-.93L61.16,112a.67.67,0,0,1,.93,0,.68.68,0,0,1,0,.94L58,117A.63.63,0,0,1,57.55,117.17Z"/><path class="cls-6" d="M52.17,122.06a.66.66,0,0,1-.46-1.12l3.06-3.06a.66.66,0,0,1,.93.93l-3.06,3.06A.66.66,0,0,1,52.17,122.06Z"/><path class="cls-6" d="M48.34,123.5a.67.67,0,0,1-.47-.2.65.65,0,0,1,0-.93l3-3a.65.65,0,0,1,.93,0,.67.67,0,0,1,0,.93l-3,3A.66.66,0,0,1,48.34,123.5Z"/><path class="cls-6" d="M44.55,123.5a.66.66,0,0,1-.46-1.12l2.24-2.24a.66.66,0,1,1,.93.93L45,123.31A.66.66,0,0,1,44.55,123.5Z"/><path class="cls-6" d="M57,121.31a.63.63,0,0,1-.46-.19.65.65,0,0,1,0-.93l3.61-3.61a.66.66,0,0,1,.93.93l-3.61,3.61A.66.66,0,0,1,57,121.31Z"/><path class="cls-6" d="M55.62,101a.66.66,0,0,1-.46-1.12l3.13-3.13a.66.66,0,1,1,.93.93l-3.13,3.13A.66.66,0,0,1,55.62,101Z"/><polygon class="cls-7" points="51.98 37.16 43.9 48.19 48.78 45.96 40.61 58.17 48.78 50.14 33.94 71.03 59.81 56.54 47.81 58.17 62.74 48.36 55.19 48.36 68.7 37.7 51.98 37.16"/><polygon class="cls-7" points="158.52 37.16 150.43 48.19 155.32 45.96 147.15 58.17 155.32 50.14 140.48 71.03 166.35 56.54 154.35 58.17 169.28 48.36 161.72 48.36 175.24 37.7 158.52 37.16"/><polygon class="cls-7" points="54.26 148.78 62.34 159.81 57.45 157.58 65.63 169.79 57.45 161.76 72.3 182.65 46.43 168.16 58.43 169.79 43.5 159.98 51.05 159.98 37.54 149.31 54.26 148.78"/><circle class="cls-4" cx="216.98" cy="55.04" r="8.21"/><line class="cls-4" x1="226.31" y1="55.04" x2="239.99" y2="55.04"/><rect class="cls-4" x="226.31" y="54.02" width="13.68" height="2.03"/><line class="cls-4" x1="225.74" y1="51.83" x2="238.59" y2="47.14"/><polygon class="cls-4" points="226.09 52.79 225.4 50.88 238.24 46.18 238.94 48.09 226.09 52.79"/><line class="cls-4" x1="224.11" y1="49.02" x2="234.57" y2="40.2"/><polygon class="cls-4" points="224.77 49.8 223.46 48.24 233.91 39.42 235.22 40.98 224.77 49.8"/><line class="cls-4" x1="221.62" y1="46.94" x2="228.41" y2="35.07"/><polygon class="cls-4" points="222.5 47.44 220.73 46.44 227.53 34.56 229.29 35.57 222.5 47.44"/><line class="cls-4" x1="218.56" y1="45.84" x2="220.86" y2="32.36"/><polygon class="cls-4" points="219.56 46.01 217.55 45.67 219.86 32.19 221.86 32.53 219.56 46.01"/><line class="cls-4" x1="215.3" y1="45.86" x2="212.84" y2="32.4"/><polygon class="cls-4" points="214.31 46.04 211.84 32.59 213.84 32.22 216.3 45.68 214.31 46.04"/><line class="cls-4" x1="212.26" y1="46.99" x2="205.32" y2="35.2"/><polygon class="cls-4" points="211.38 47.51 204.45 35.71 206.2 34.69 213.13 46.48 211.38 47.51"/><line class="cls-4" x1="209.78" y1="49.1" x2="199.22" y2="40.41"/><polygon class="cls-4" points="209.14 49.89 198.58 41.19 199.87 39.62 210.43 48.32 209.14 49.89"/><line class="cls-4" x1="208.19" y1="51.94" x2="195.28" y2="47.39"/><polygon class="cls-4" points="207.85 52.9 194.94 48.35 195.62 46.43 208.52 50.98 207.85 52.9"/><line class="cls-4" x1="207.66" y1="55.14" x2="193.98" y2="55.3"/><polygon class="cls-4" points="193.99 56.32 193.97 54.29 207.65 54.13 207.67 56.16 193.99 56.32"/><line class="cls-4" x1="208.26" y1="58.34" x2="195.47" y2="63.18"/><polygon class="cls-4" points="195.83 64.13 195.11 62.23 207.9 57.39 208.62 59.29 195.83 64.13"/><line class="cls-4" x1="209.92" y1="61.13" x2="199.57" y2="70.07"/><polygon class="cls-4" points="200.23 70.84 198.91 69.31 209.26 60.36 210.59 61.9 200.23 70.84"/><line class="cls-4" x1="212.45" y1="63.18" x2="205.79" y2="75.14"/><polygon class="cls-4" points="206.68 75.63 204.9 74.64 211.56 62.69 213.33 63.68 206.68 75.63"/><line class="cls-4" x1="215.52" y1="64.25" x2="213.37" y2="77.76"/><polygon class="cls-4" points="214.37 77.92 212.37 77.6 214.52 64.09 216.52 64.41 214.37 77.92"/><line class="cls-4" x1="218.77" y1="64.19" x2="221.39" y2="77.62"/><polygon class="cls-4" points="220.39 77.81 217.77 64.39 219.77 63.99 222.39 77.42 220.39 77.81"/><line class="cls-4" x1="221.8" y1="63.02" x2="228.87" y2="74.73"/><polygon class="cls-4" points="228 75.26 220.93 63.55 222.67 62.5 229.74 74.21 228 75.26"/><line class="cls-4" x1="224.25" y1="60.88" x2="234.91" y2="69.46"/><polygon class="cls-4" points="234.27 70.25 223.61 61.67 224.89 60.09 235.55 68.67 234.27 70.25"/><line class="cls-4" x1="225.82" y1="58.03" x2="238.77" y2="62.43"/><polygon class="cls-4" points="238.44 63.39 225.49 58.99 226.14 57.07 239.1 61.46 238.44 63.39"/><path class="cls-5" d="M200.57,10.71s9.76,4.76,15.15,0c0,0,1.52,2.78,4,.36,0,0,1.52,2.78,3.77.09,0,0,13.55,5.38,16.33-7s-12.48-7.27-12.48-7.27,7.27-9.78-8.07-9.78-9.69,7.27-9.69,7.27S202.17-10,202.08-6c0,0-7-4.58-11-1.26s-3,6.64-3,6.64S188.39,6.4,200.57,10.71Z"/><path class="cls-5" d="M230.48,173.75s-9.76,4.76-15.14,0c0,0-1.53,2.79-4,.36,0,0-1.53,2.79-3.77.09,0,0-13.55,5.39-16.33-7s12.47-7.27,12.47-7.27-7.27-9.78,8.08-9.78,9.69,7.27,9.69,7.27,7.45-4.39,7.54-.36c0,0,7-4.57,11-1.25s3,6.64,3,6.64S242.67,169.45,230.48,173.75Z"/><path class="cls-3" d="M214.09,112.83a3.29,3.29,0,0,1,.43-.09l-1,1.27-.5.18,0-.68a3.38,3.38,0,0,0,0-.45l.86-1.15A7,7,0,0,1,214.09,112.83Z"/><path class="cls-3" d="M199.38,102.17l-.18.25-.75,1.1,1.22-.35a4.9,4.9,0,0,1,2.19-.12A5.22,5.22,0,0,1,204,104a4.9,4.9,0,0,1,2,4.15l0,.67.63-.22a4.87,4.87,0,0,1,4.55.72,5.18,5.18,0,0,1,1.56,1.92,4.91,4.91,0,0,1,.43,1.85l.86-1.15a7,7,0,0,1,.12.92,3.29,3.29,0,0,1,.43-.09l-1,1.27.14-.05a4.8,4.8,0,0,1,3.17,0,4.62,4.62,0,0,1,.88.39,4.83,4.83,0,0,1,.56.36,4.91,4.91,0,0,1,2,4.16l0,.66.62-.22a5,5,0,0,1,6.49,4.18l.13,1.18.74-1c1.88-2.58,2.62-6.88,1.93-11.22A19.75,19.75,0,0,0,228,106a16.6,16.6,0,0,0-1.93-2.83c-.2-.24-.41-.48-.63-.71a15.42,15.42,0,0,0-2-1.75l-.11-.08c-.21-.16-.43-.31-.65-.46a17.5,17.5,0,0,0-5.91-2.52,21.56,21.56,0,0,0-7-.38C205.31,97.74,201.28,99.62,199.38,102.17Z"/><path class="cls-3" d="M206.4,129.76l-.24.31-.75-.56.23-.3ZM224.8,99c.14,0-9.09,12.23-9.05,12.34h0L203.6,127.6a1.54,1.54,0,0,0-.31,1.05,1.21,1.21,0,0,0,.48.89,1.38,1.38,0,0,0,1.91-.39h0l.74.56h0a2.36,2.36,0,0,1-3.31.65,2.41,2.41,0,0,1-.25-3.36l20.75-27.78a.87.87,0,0,1,1.16-.26Z"/><path class="cls-6" d="M166.08-3.55a.66.66,0,0,1-.47-.19.65.65,0,0,1,0-.93l3.64-3.64a.67.67,0,0,1,.93,0,.65.65,0,0,1,0,.93l-3.64,3.64A.63.63,0,0,1,166.08-3.55Z"/><path class="cls-6" d="M166.93-.76a.67.67,0,0,1-.47-.2.67.67,0,0,1,0-.93l2.86-2.85a.65.65,0,0,1,.93,0,.65.65,0,0,1,0,.93L167.4-1A.67.67,0,0,1,166.93-.76Z"/><path class="cls-6" d="M166.86,2.43a.66.66,0,0,1-.47-1.12l3.23-3.23a.65.65,0,0,1,.93,0,.65.65,0,0,1,0,.93l-3.23,3.23A.65.65,0,0,1,166.86,2.43Z"/><path class="cls-6" d="M162.22,1a.66.66,0,0,1-.47-1.12l2.53-2.53a.67.67,0,0,1,.93,0,.68.68,0,0,1,0,.94L162.68.79A.65.65,0,0,1,162.22,1Z"/><path class="cls-6" d="M160.84-2.32a.68.68,0,0,1-.46-.19.65.65,0,0,1,0-.93l3.82-3.83a.66.66,0,0,1,.93,0,.65.65,0,0,1,0,.93l-3.82,3.83A.7.7,0,0,1,160.84-2.32Z"/><path class="cls-6" d="M157.8-3.14a.66.66,0,0,1-.47-.19.67.67,0,0,1,0-.93L160-6.9a.67.67,0,0,1,.93,0,.65.65,0,0,1,0,.93l-2.64,2.64A.62.62,0,0,1,157.8-3.14Z"/><path class="cls-6" d="M156.92,2.44a.66.66,0,0,1-.47-1.12l2.2-2.2a.65.65,0,0,1,.93,0,.65.65,0,0,1,0,.93l-2.2,2.2A.65.65,0,0,1,156.92,2.44Z"/><path class="cls-6" d="M156.54,6.51a.66.66,0,0,1-.47-1.12l3.23-3.23a.66.66,0,0,1,.93.93L157,6.32A.63.63,0,0,1,156.54,6.51Z"/><path class="cls-6" d="M160.73,6.85a.66.66,0,0,1-.46-1.13l3.86-3.86a.67.67,0,0,1,.93,0,.65.65,0,0,1,0,.93L161.2,6.66A.7.7,0,0,1,160.73,6.85Z"/><path class="cls-6" d="M164.42,8.39A.7.7,0,0,1,164,8.2a.65.65,0,0,1,0-.93l3.47-3.48a.67.67,0,0,1,.93,0,.65.65,0,0,1,0,.93L164.89,8.2A.7.7,0,0,1,164.42,8.39Z"/><path class="cls-6" d="M154.9,11.71a.66.66,0,0,1-.46-1.12l3.67-3.68a.67.67,0,0,1,.93,0,.65.65,0,0,1,0,.93l-3.67,3.68A.66.66,0,0,1,154.9,11.71Z"/><path class="cls-6" d="M160.06,10.93a.66.66,0,0,1-.46-1.12l2.15-2.16a.66.66,0,0,1,.93.94l-2.15,2.15A.66.66,0,0,1,160.06,10.93Z"/><path class="cls-6" d="M152.82,2.8a.66.66,0,0,1-.46-1.12l3.53-3.53a.65.65,0,0,1,.93,0,.67.67,0,0,1,0,.93l-3.53,3.53A.66.66,0,0,1,152.82,2.8Z"/><path class="cls-6" d="M153.42-2.38a.66.66,0,0,1-.47-.19.67.67,0,0,1,0-.93l3.33-3.32a.65.65,0,0,1,.93,0,.67.67,0,0,1,0,.93l-3.33,3.32A.62.62,0,0,1,153.42-2.38Z"/><path class="cls-6" d="M162.75-8.23a.67.67,0,0,1-.47-.2.65.65,0,0,1,0-.93l2.81-2.81a.65.65,0,0,1,.93,0,.65.65,0,0,1,0,.93l-2.81,2.81A.66.66,0,0,1,162.75-8.23Z"/><path class="cls-6" d="M158.91-8.48a.66.66,0,0,1-.46-.2.65.65,0,0,1,0-.93l2.78-2.78a.65.65,0,0,1,.93,0,.65.65,0,0,1,0,.93l-2.78,2.78A.67.67,0,0,1,158.91-8.48Z"/><path class="cls-6" d="M154.73-8.38a.7.7,0,0,1-.47-.19.65.65,0,0,1,0-.93L157-12.24a.65.65,0,0,1,.93,0,.65.65,0,0,1,0,.93l-2.74,2.74A.68.68,0,0,1,154.73-8.38Z"/><path class="cls-6" d="M148.59-2.54a.65.65,0,0,1-.46-.2.65.65,0,0,1,0-.93L152-7.49a.65.65,0,0,1,.93,0,.65.65,0,0,1,0,.93l-3.82,3.82A.67.67,0,0,1,148.59-2.54Z"/><path class="cls-6" d="M150.31-7.82a.67.67,0,0,1-.47-.2.67.67,0,0,1,0-.93L152.92-12a.65.65,0,0,1,.93,0,.67.67,0,0,1,0,.93L150.78-8A.67.67,0,0,1,150.31-7.82Z"/><path class="cls-6" d="M148.37,2.21A.7.7,0,0,1,147.9,2a.68.68,0,0,1,0-.94l2.49-2.48a.65.65,0,0,1,.93,0,.65.65,0,0,1,0,.93L148.84,2A.7.7,0,0,1,148.37,2.21Z"/><path class="cls-6" d="M152.05,6.86a.66.66,0,0,1-.46-.19.65.65,0,0,1,0-.93l2.53-2.54a.66.66,0,0,1,.93.93l-2.53,2.54A.7.7,0,0,1,152.05,6.86Z"/><path class="cls-6" d="M148.18,6.65a.7.7,0,0,1-.47-.19.68.68,0,0,1,0-.94L150,3.2a.66.66,0,0,1,.93.93l-2.33,2.33A.66.66,0,0,1,148.18,6.65Z"/><path class="cls-6" d="M151.77,10.71a.67.67,0,0,1-.47-1.13l2.82-2.82a.67.67,0,0,1,.93,0,.65.65,0,0,1,0,.93l-2.82,2.82A.63.63,0,0,1,151.77,10.71Z"/><path class="cls-6" d="M170.27,3a.62.62,0,0,1-.46-.19.65.65,0,0,1,0-.93l3.3-3.3a.65.65,0,0,1,.93,0,.65.65,0,0,1,0,.93l-3.3,3.3A.66.66,0,0,1,170.27,3Z"/><path class="cls-6" d="M168.91,8a.67.67,0,0,1-.47-.2.65.65,0,0,1,0-.93l4.08-4.07a.65.65,0,0,1,.93,0,.67.67,0,0,1,0,.93l-4.08,4.07A.65.65,0,0,1,168.91,8Z"/><path class="cls-6" d="M163.53,12.92a.66.66,0,0,1-.46-.2.65.65,0,0,1,0-.93l3.06-3.06a.66.66,0,0,1,.93.93L164,12.72A.67.67,0,0,1,163.53,12.92Z"/><path class="cls-6" d="M159.7,14.35a.66.66,0,0,1-.47-1.12l3-3a.66.66,0,0,1,.93.93l-3,3A.63.63,0,0,1,159.7,14.35Z"/><path class="cls-6" d="M155.92,14.36a.67.67,0,0,1-.47-.2.65.65,0,0,1,0-.93L157.69,11a.65.65,0,0,1,.93,0,.67.67,0,0,1,0,.93l-2.24,2.23A.66.66,0,0,1,155.92,14.36Z"/><path class="cls-6" d="M168.31,12.17a.66.66,0,0,1-.46-.2.65.65,0,0,1,0-.93l3.61-3.61a.67.67,0,0,1,.93,0,.65.65,0,0,1,0,.93L168.78,12A.67.67,0,0,1,168.31,12.17Z"/><path class="cls-6" d="M167-8.13a.66.66,0,0,1-.46-.2.65.65,0,0,1,0-.93l3.13-3.13a.65.65,0,0,1,.93,0,.65.65,0,0,1,0,.93l-3.13,3.13A.67.67,0,0,1,167-8.13Z"/><path class="cls-3" d="M57.79,221.28l1.06,1.06a3.69,3.69,0,0,0,.08.46l.14.71-.54-.11-1.18-1.18.46,0A6.16,6.16,0,0,1,57.79,221.28Z"/><path class="cls-3" d="M71.45,209l.22.24,1,1-1.32-.18a5.1,5.1,0,0,0-2.29.21A5.27,5.27,0,0,0,67,211.55a5.14,5.14,0,0,0-1.44,4.6l.14.68L65,216.7a5.14,5.14,0,0,0-4.61,1.44A5.21,5.21,0,0,0,59,220.36a5.1,5.1,0,0,0-.18,2l-1.06-1.06a6.16,6.16,0,0,0,0,1l-.46,0,1.18,1.18-.16,0a5.09,5.09,0,0,0-2.45.11,4.31,4.31,0,0,0-.84.33,5.85,5.85,0,0,0-.86.53,5.53,5.53,0,0,0-.52.46,5.16,5.16,0,0,0-1.44,4.61l.14.68-.69-.13a5.13,5.13,0,0,0-4.57,1.45,5.18,5.18,0,0,0-1.53,3.85l0,1.25-.92-.95c-2.33-2.39-3.74-6.74-3.68-11.34a20.47,20.47,0,0,1,1.28-7A18.47,18.47,0,0,1,43.91,214c.18-.28.36-.56.56-.83a16,16,0,0,1,1.75-2.1l.1-.11.6-.57a18.3,18.3,0,0,1,5.76-3.5,22.41,22.41,0,0,1,7.15-1.44C64.64,205.29,69.09,206.64,71.45,209Z"/><path class="cls-3" d="M69,238l.28.28-.7.69-.29-.29ZM44.65,209.48a.91.91,0,0,1,1.24.1l25.67,25.67a2.53,2.53,0,0,1,.25,3.52,2.49,2.49,0,0,1-3.53-.17h0l.69-.69h0a1.45,1.45,0,0,0,2,.12,1.29,1.29,0,0,0,.37-1,1.62,1.62,0,0,0-.48-1l-15-15h0c0-.11-11.37-11.44-11.22-11.43Z"/><path class="cls-5" d="M-15.43,226.71s9.76,4.76,15.15,0c0,0,1.52,2.78,4,.36,0,0,1.52,2.78,3.77.09,0,0,13.55,5.38,16.33-7s-12.48-7.27-12.48-7.27,7.27-9.78-8.07-9.78-9.69,7.27-9.69,7.27-7.45-4.4-7.54-.36c0,0-7-4.58-11-1.26s-3,6.64-3,6.64S-27.61,222.4-15.43,226.71Z"/><circle class="cls-4" cx="108.5" cy="216.7" r="8.21"/><line class="cls-4" x1="117.83" y1="216.7" x2="131.51" y2="216.7"/><rect class="cls-4" x="117.83" y="215.69" width="13.68" height="2.03"/><line class="cls-4" x1="117.26" y1="213.5" x2="130.11" y2="208.81"/><polygon class="cls-4" points="117.61 214.46 116.91 212.55 129.76 207.85 130.46 209.76 117.61 214.46"/><line class="cls-4" x1="115.63" y1="210.69" x2="126.09" y2="201.87"/><polygon class="cls-4" points="116.28 211.47 114.97 209.91 125.43 201.09 126.74 202.65 116.28 211.47"/><line class="cls-4" x1="113.13" y1="208.61" x2="119.92" y2="196.73"/><polygon class="cls-4" points="114.01 209.11 112.25 208.1 119.04 196.23 120.81 197.24 114.01 209.11"/><line class="cls-4" x1="110.07" y1="207.51" x2="112.38" y2="194.02"/><polygon class="cls-4" points="111.07 207.68 109.07 207.34 111.37 193.85 113.38 194.19 111.07 207.68"/><line class="cls-4" x1="106.82" y1="207.53" x2="104.36" y2="194.07"/><polygon class="cls-4" points="105.82 207.71 103.36 194.25 105.36 193.89 107.82 207.34 105.82 207.71"/><line class="cls-4" x1="103.77" y1="208.66" x2="96.84" y2="196.87"/><polygon class="cls-4" points="102.9 209.18 95.96 197.38 97.72 196.35 104.65 208.15 102.9 209.18"/><line class="cls-4" x1="101.3" y1="210.77" x2="90.74" y2="202.07"/><polygon class="cls-4" points="100.65 211.56 90.09 202.86 91.39 201.29 101.94 209.99 100.65 211.56"/><line class="cls-4" x1="99.7" y1="213.6" x2="86.8" y2="209.06"/><polygon class="cls-4" points="99.36 214.56 86.46 210.02 87.14 208.1 100.04 212.65 99.36 214.56"/><line class="cls-4" x1="99.17" y1="216.81" x2="85.49" y2="216.97"/><polygon class="cls-4" points="85.5 217.99 85.48 215.96 99.16 215.8 99.18 217.83 85.5 217.99"/><line class="cls-4" x1="99.78" y1="220.01" x2="86.98" y2="224.85"/><polygon class="cls-4" points="87.34 225.8 86.62 223.9 99.42 219.06 100.14 220.96 87.34 225.8"/><line class="cls-4" x1="101.44" y1="222.8" x2="91.09" y2="231.74"/><polygon class="cls-4" points="91.75 232.51 90.42 230.97 100.78 222.03 102.1 223.57 91.75 232.51"/><line class="cls-4" x1="103.96" y1="224.85" x2="97.31" y2="236.8"/><polygon class="cls-4" points="98.19 237.3 96.42 236.31 103.07 224.36 104.85 225.35 98.19 237.3"/><line class="cls-4" x1="107.03" y1="225.91" x2="104.89" y2="239.42"/><polygon class="cls-4" points="105.89 239.58 103.88 239.27 106.03 225.75 108.04 226.07 105.89 239.58"/><line class="cls-4" x1="110.28" y1="225.86" x2="112.9" y2="239.28"/><polygon class="cls-4" points="111.91 239.48 109.29 226.05 111.28 225.66 113.9 239.09 111.91 239.48"/><line class="cls-4" x1="113.32" y1="224.69" x2="120.39" y2="236.4"/><polygon class="cls-4" points="119.52 236.93 112.45 225.21 114.19 224.16 121.26 235.88 119.52 236.93"/><line class="cls-4" x1="115.77" y1="222.55" x2="126.43" y2="231.12"/><polygon class="cls-4" points="125.79 231.92 115.13 223.34 116.4 221.76 127.06 230.33 125.79 231.92"/><line class="cls-4" x1="117.33" y1="219.7" x2="130.29" y2="224.09"/><polygon class="cls-4" points="129.96 225.06 117 220.66 117.66 218.74 130.61 223.13 129.96 225.06"/><path class="cls-5" d="M200.57,226.71s9.76,4.76,15.15,0c0,0,1.52,2.78,4,.36,0,0,1.52,2.78,3.77.09,0,0,13.55,5.38,16.33-7s-12.48-7.27-12.48-7.27,7.27-9.78-8.07-9.78-9.69,7.27-9.69,7.27-7.45-4.4-7.54-.36c0,0-7-4.58-11-1.26s-3,6.64-3,6.64S188.39,222.4,200.57,226.71Z"/><path class="cls-6" d="M166.08,212.45a.66.66,0,0,1-.47-1.12l3.64-3.64a.67.67,0,0,1,.93,0,.65.65,0,0,1,0,.93l-3.64,3.64A.63.63,0,0,1,166.08,212.45Z"/><path class="cls-6" d="M166.93,215.24a.7.7,0,0,1-.47-.19.68.68,0,0,1,0-.94l2.86-2.85a.66.66,0,0,1,.93.93l-2.85,2.86A.7.7,0,0,1,166.93,215.24Z"/><path class="cls-6" d="M166.86,218.43a.66.66,0,0,1-.47-1.12l3.23-3.23a.66.66,0,0,1,.93.93l-3.23,3.23A.65.65,0,0,1,166.86,218.43Z"/><path class="cls-6" d="M162.22,217a.66.66,0,0,1-.47-1.12l2.53-2.53a.67.67,0,0,1,.93,0,.68.68,0,0,1,0,.94l-2.53,2.52A.65.65,0,0,1,162.22,217Z"/><path class="cls-6" d="M160.84,213.68a.68.68,0,0,1-.46-.19.66.66,0,0,1,0-.94l3.82-3.82a.66.66,0,0,1,.93,0,.65.65,0,0,1,0,.93l-3.82,3.83A.7.7,0,0,1,160.84,213.68Z"/><path class="cls-6" d="M157.8,212.86a.66.66,0,0,1-.47-.19.67.67,0,0,1,0-.93L160,209.1a.67.67,0,0,1,.93,0,.65.65,0,0,1,0,.93l-2.64,2.64A.62.62,0,0,1,157.8,212.86Z"/><path class="cls-6" d="M156.92,218.44a.66.66,0,0,1-.47-1.12l2.2-2.2a.66.66,0,0,1,.93.93l-2.2,2.2A.65.65,0,0,1,156.92,218.44Z"/><path class="cls-6" d="M156.54,222.51a.66.66,0,0,1-.47-1.12l3.23-3.23a.66.66,0,0,1,.93.93L157,222.32A.63.63,0,0,1,156.54,222.51Z"/><path class="cls-6" d="M160.73,222.85a.63.63,0,0,1-.46-.2.65.65,0,0,1,0-.93l3.86-3.86a.67.67,0,0,1,.93,0,.65.65,0,0,1,0,.93l-3.86,3.87A.7.7,0,0,1,160.73,222.85Z"/><path class="cls-6" d="M164.42,224.39a.7.7,0,0,1-.46-.19.66.66,0,0,1,0-.94l3.47-3.47a.66.66,0,1,1,.93.94l-3.47,3.47A.7.7,0,0,1,164.42,224.39Z"/><path class="cls-6" d="M154.9,227.71a.66.66,0,0,1-.46-1.12l3.67-3.68a.67.67,0,0,1,.93,0,.65.65,0,0,1,0,.93l-3.67,3.68A.66.66,0,0,1,154.9,227.71Z"/><path class="cls-6" d="M160.06,226.93a.66.66,0,0,1-.46-1.12l2.15-2.16a.66.66,0,1,1,.93.94l-2.15,2.15A.66.66,0,0,1,160.06,226.93Z"/><path class="cls-6" d="M152.82,218.8a.66.66,0,0,1-.46-1.12l3.53-3.53a.66.66,0,0,1,.93,0,.67.67,0,0,1,0,.93l-3.53,3.53A.66.66,0,0,1,152.82,218.8Z"/><path class="cls-6" d="M153.42,213.62a.66.66,0,0,1-.47-.19.67.67,0,0,1,0-.93l3.33-3.32a.65.65,0,0,1,.93,0,.67.67,0,0,1,0,.93l-3.33,3.32A.62.62,0,0,1,153.42,213.62Z"/><path class="cls-6" d="M162.75,207.77a.7.7,0,0,1-.47-.19.66.66,0,0,1,0-.94l2.81-2.81a.67.67,0,0,1,.93,0,.65.65,0,0,1,0,.93l-2.81,2.82A.7.7,0,0,1,162.75,207.77Z"/><path class="cls-6" d="M158.91,207.52a.66.66,0,0,1-.46-.2.65.65,0,0,1,0-.93l2.78-2.78a.66.66,0,1,1,.93.93l-2.78,2.78A.67.67,0,0,1,158.91,207.52Z"/><path class="cls-6" d="M154.73,207.62a.7.7,0,0,1-.47-.19.65.65,0,0,1,0-.93l2.74-2.74a.66.66,0,0,1,.93.93l-2.74,2.74A.68.68,0,0,1,154.73,207.62Z"/><path class="cls-6" d="M148.59,213.46a.67.67,0,0,1-.46-1.13l3.82-3.82a.66.66,0,0,1,.93.93l-3.82,3.82A.67.67,0,0,1,148.59,213.46Z"/><path class="cls-6" d="M150.31,208.18a.67.67,0,0,1-.47-1.13l3.08-3.07a.65.65,0,0,1,.93,0,.67.67,0,0,1,0,.93L150.78,208A.67.67,0,0,1,150.31,208.18Z"/><path class="cls-6" d="M148.37,218.21a.7.7,0,0,1-.47-.19.68.68,0,0,1,0-.94l2.49-2.48a.66.66,0,0,1,.93.93L148.84,218A.7.7,0,0,1,148.37,218.21Z"/><path class="cls-6" d="M152.05,222.86a.66.66,0,0,1-.46-.19.65.65,0,0,1,0-.93l2.53-2.54a.66.66,0,0,1,.93.93l-2.53,2.54A.7.7,0,0,1,152.05,222.86Z"/><path class="cls-6" d="M148.18,222.65a.7.7,0,0,1-.47-.19.68.68,0,0,1,0-.94L150,219.2a.66.66,0,0,1,.93.93l-2.32,2.33A.7.7,0,0,1,148.18,222.65Z"/><path class="cls-6" d="M151.77,226.71a.67.67,0,0,1-.47-1.13l2.82-2.82a.66.66,0,1,1,.93.94l-2.82,2.81A.63.63,0,0,1,151.77,226.71Z"/><path class="cls-6" d="M170.27,219a.62.62,0,0,1-.46-.19.65.65,0,0,1,0-.93l3.3-3.3a.66.66,0,0,1,.93.93l-3.3,3.3A.66.66,0,0,1,170.27,219Z"/><path class="cls-6" d="M168.91,224a.67.67,0,0,1-.47-.2.65.65,0,0,1,0-.93l4.08-4.07a.65.65,0,0,1,.93,0,.67.67,0,0,1,0,.93l-4.08,4.07A.65.65,0,0,1,168.91,224Z"/><path class="cls-6" d="M163.53,228.92a.66.66,0,0,1-.46-.2.65.65,0,0,1,0-.93l3.06-3.06a.66.66,0,0,1,.93.93L164,228.72A.67.67,0,0,1,163.53,228.92Z"/><path class="cls-6" d="M159.7,230.35a.66.66,0,0,1-.47-1.12l3-3a.66.66,0,0,1,.93,0,.67.67,0,0,1,0,.93l-3,3A.63.63,0,0,1,159.7,230.35Z"/><path class="cls-6" d="M155.92,230.36a.67.67,0,0,1-.47-.2.65.65,0,0,1,0-.93l2.24-2.23a.65.65,0,0,1,.93,0,.67.67,0,0,1,0,.93l-2.24,2.23A.66.66,0,0,1,155.92,230.36Z"/><path class="cls-6" d="M168.31,228.17a.66.66,0,0,1-.46-.2.65.65,0,0,1,0-.93l3.61-3.61a.67.67,0,0,1,.93,0,.65.65,0,0,1,0,.93L168.78,228A.67.67,0,0,1,168.31,228.17Z"/><path class="cls-6" d="M167,207.87a.66.66,0,0,1-.46-.2.65.65,0,0,1,0-.93l3.13-3.13a.66.66,0,1,1,.93.93l-3.13,3.13A.67.67,0,0,1,167,207.87Z"/><rect class="cls-1" width="216" height="216"/><path class="cls-1" d="M57.79,5.28l1.06,1.06a3.69,3.69,0,0,0,.08.46l.14.71-.54-.11L57.35,6.22l.46,0A6.16,6.16,0,0,1,57.79,5.28Z"/><path class="cls-1" d="M71.45-7l.22.24,1,1L71.3-5.93A5.1,5.1,0,0,0,69-5.72,5.27,5.27,0,0,0,67-4.45,5.14,5.14,0,0,0,65.51.15l.14.68L65,.7a5.14,5.14,0,0,0-4.61,1.44A5.21,5.21,0,0,0,59,4.36a5.1,5.1,0,0,0-.18,2L57.79,5.28a6.16,6.16,0,0,0,0,1l-.46,0L58.53,7.4l-.16,0a5.09,5.09,0,0,0-2.45.11,4.31,4.31,0,0,0-.84.33,5.85,5.85,0,0,0-.86.53,5.53,5.53,0,0,0-.52.46,5.16,5.16,0,0,0-1.44,4.61l.14.68L51.71,14a5.13,5.13,0,0,0-4.57,1.45,5.18,5.18,0,0,0-1.53,3.85l0,1.25-.92-.95C42.41,17.16,41,12.81,41.06,8.21a20.47,20.47,0,0,1,1.28-7A18.47,18.47,0,0,1,43.91-2c.18-.28.36-.56.56-.83a16,16,0,0,1,1.75-2.1l.1-.11c.2-.19.4-.39.6-.57a18.3,18.3,0,0,1,5.76-3.5,22.41,22.41,0,0,1,7.15-1.44C64.64-10.71,69.09-9.36,71.45-7Z"/><path class="cls-1" d="M69,22l.28.28-.7.69-.29-.29ZM44.65-6.52a.91.91,0,0,1,1.24.1L71.56,19.25a2.53,2.53,0,0,1,.25,3.52,2.49,2.49,0,0,1-3.53-.17h0L69,21.9h0A1.45,1.45,0,0,0,71,22a1.29,1.29,0,0,0,.37-1,1.62,1.62,0,0,0-.48-1l-15-15h0c0-.11-11.37-11.44-11.22-11.43Z"/><path class="cls-1" d="M159.24,162.35l.43-.09-.95,1.28-.5.18,0-.69a3.38,3.38,0,0,0,0-.45l.86-1.15A5.64,5.64,0,0,1,159.24,162.35Z"/><path class="cls-1" d="M144.54,151.69l-.18.26-.76,1.1,1.23-.36a5,5,0,0,1,6.3,4.95l0,.67.62-.22a5,5,0,0,1,6.11,2.64,4.82,4.82,0,0,1,.44,1.85l.86-1.15a5.64,5.64,0,0,1,.11.92l.43-.09-.95,1.28.15-.06a4.68,4.68,0,0,1,2.32-.23,5,5,0,0,1,.85.19,4.92,4.92,0,0,1,.88.39,5.21,5.21,0,0,1,.55.36,4.89,4.89,0,0,1,2,4.16l0,.66.63-.21a5,5,0,0,1,6.49,4.17l.12,1.19.75-1c1.87-2.59,2.61-6.89,1.92-11.23a19.58,19.58,0,0,0-2.16-6.41,17.63,17.63,0,0,0-1.93-2.83c-.21-.24-.42-.48-.64-.71a16,16,0,0,0-1.94-1.74l-.11-.09c-.21-.16-.43-.31-.65-.46a17.53,17.53,0,0,0-5.92-2.51,21.27,21.27,0,0,0-7-.39C150.46,147.26,146.44,149.15,144.54,151.69Z"/><path class="cls-1" d="M151.55,179.28l-.23.32-.75-.56.23-.3ZM170,148.5c.14,0-9.09,12.24-9,12.34h0l-12.15,16.28a1.55,1.55,0,0,0-.32,1,1.28,1.28,0,0,0,.49.9,1.39,1.39,0,0,0,1.91-.39h0l.75.56h0a2.39,2.39,0,0,1-3.32.65,2.43,2.43,0,0,1-.24-3.36l20.74-27.78a.86.86,0,0,1,1.16-.26Z"/><circle class="cls-1" cx="0.98" cy="55.04" r="8.21"/><line class="cls-1" x1="10.31" y1="55.04" x2="23.99" y2="55.04"/><rect class="cls-1" x="10.31" y="54.02" width="13.68" height="2.03"/><line class="cls-1" x1="9.74" y1="51.83" x2="22.59" y2="47.14"/><polygon class="cls-1" points="10.09 52.79 9.39 50.88 22.24 46.18 22.94 48.09 10.09 52.79"/><line class="cls-1" x1="8.11" y1="49.02" x2="18.57" y2="40.2"/><polygon class="cls-1" points="8.77 49.8 7.46 48.24 17.91 39.42 19.23 40.98 8.77 49.8"/><line class="cls-1" x1="5.62" y1="46.94" x2="12.41" y2="35.07"/><polygon class="cls-1" points="6.5 47.44 4.73 46.44 11.53 34.56 13.29 35.57 6.5 47.44"/><line class="cls-1" x1="2.56" y1="45.84" x2="4.86" y2="32.36"/><polygon class="cls-1" points="3.56 46.01 1.55 45.67 3.86 32.19 5.86 32.53 3.56 46.01"/><line class="cls-1" x1="-0.7" y1="45.86" x2="-3.16" y2="32.4"/><polygon class="cls-1" points="-1.7 46.04 -4.16 32.59 -2.16 32.22 0.3 45.68 -1.7 46.04"/><line class="cls-1" x1="-3.74" y1="46.99" x2="-10.68" y2="35.2"/><polygon class="cls-1" points="-4.62 47.51 -11.55 35.71 -9.8 34.69 -2.87 46.48 -4.62 47.51"/><line class="cls-1" x1="-6.22" y1="49.1" x2="-16.78" y2="40.41"/><polygon class="cls-1" points="-6.86 49.89 -17.42 41.19 -16.13 39.62 -5.57 48.32 -6.86 49.89"/><line class="cls-1" x1="-7.81" y1="51.94" x2="-20.72" y2="47.39"/><polygon class="cls-1" points="-8.15 52.9 -21.05 48.35 -20.38 46.43 -7.48 50.98 -8.15 52.9"/><line class="cls-1" x1="-8.34" y1="55.14" x2="-22.02" y2="55.3"/><polygon class="cls-1" points="-22.01 56.32 -22.04 54.29 -8.36 54.13 -8.33 56.16 -22.01 56.32"/><line class="cls-1" x1="-7.74" y1="58.34" x2="-20.53" y2="63.18"/><polygon class="cls-1" points="-20.17 64.13 -20.89 62.23 -8.1 57.39 -7.38 59.29 -20.17 64.13"/><line class="cls-1" x1="-6.08" y1="61.13" x2="-16.43" y2="70.07"/><polygon class="cls-1" points="-15.77 70.84 -17.09 69.31 -6.74 60.36 -5.41 61.9 -15.77 70.84"/><line class="cls-1" x1="-3.55" y1="63.18" x2="-10.21" y2="75.14"/><polygon class="cls-1" points="-9.32 75.63 -11.1 74.64 -4.44 62.69 -2.67 63.68 -9.32 75.63"/><line class="cls-1" x1="-0.48" y1="64.25" x2="-2.63" y2="77.76"/><polygon class="cls-1" points="-1.63 77.92 -3.63 77.6 -1.49 64.09 0.52 64.41 -1.63 77.92"/><line class="cls-1" x1="2.77" y1="64.19" x2="5.39" y2="77.62"/><polygon class="cls-1" points="4.39 77.81 1.77 64.38 3.77 64 6.38 77.42 4.39 77.81"/><line class="cls-1" x1="5.8" y1="63.02" x2="12.87" y2="74.73"/><polygon class="cls-1" points="12 75.26 4.93 63.55 6.67 62.5 13.74 74.21 12 75.26"/><line class="cls-1" x1="8.25" y1="60.88" x2="18.91" y2="69.46"/><polygon class="cls-1" points="18.27 70.25 7.61 61.67 8.89 60.09 19.55 68.67 18.27 70.25"/><line class="cls-1" x1="9.82" y1="58.03" x2="22.77" y2="62.43"/><polygon class="cls-1" points="22.45 63.39 9.49 58.99 10.14 57.07 23.1 61.47 22.45 63.39"/><circle class="cls-1" cx="108.5" cy="161.76" r="8.21"/><line class="cls-1" x1="117.83" y1="161.76" x2="131.51" y2="161.76"/><rect class="cls-1" x="117.83" y="160.74" width="13.68" height="2.03"/><line class="cls-1" x1="117.26" y1="158.56" x2="130.11" y2="153.86"/><polygon class="cls-1" points="117.61 159.51 116.91 157.6 129.76 152.91 130.46 154.81 117.61 159.51"/><line class="cls-1" x1="115.63" y1="155.74" x2="126.09" y2="146.92"/><polygon class="cls-1" points="116.28 156.52 114.97 154.97 125.43 146.15 126.74 147.7 116.28 156.52"/><line class="cls-1" x1="113.13" y1="153.66" x2="119.93" y2="141.79"/><polygon class="cls-1" points="114.01 154.17 112.25 153.16 119.04 141.28 120.81 142.29 114.01 154.17"/><line class="cls-1" x1="110.07" y1="152.56" x2="112.38" y2="139.08"/><polygon class="cls-1" points="111.07 152.74 109.07 152.39 111.38 138.91 113.38 139.25 111.07 152.74"/><line class="cls-1" x1="106.82" y1="152.58" x2="104.36" y2="139.13"/><polygon class="cls-1" points="105.82 152.77 103.36 139.31 105.36 138.94 107.82 152.4 105.82 152.77"/><line class="cls-1" x1="103.77" y1="153.72" x2="96.84" y2="141.92"/><polygon class="cls-1" points="102.9 154.23 95.97 142.44 97.72 141.41 104.65 153.2 102.9 154.23"/><line class="cls-1" x1="101.3" y1="155.83" x2="90.74" y2="147.13"/><polygon class="cls-1" points="100.65 156.61 90.09 147.91 91.39 146.34 101.95 155.04 100.65 156.61"/><line class="cls-1" x1="99.7" y1="158.66" x2="86.8" y2="154.11"/><polygon class="cls-1" points="99.36 159.62 86.46 155.07 87.14 153.16 100.04 157.7 99.36 159.62"/><line class="cls-1" x1="99.17" y1="161.87" x2="85.49" y2="162.03"/><polygon class="cls-1" points="85.5 163.04 85.48 161.01 99.16 160.85 99.18 162.88 85.5 163.04"/><line class="cls-1" x1="99.78" y1="165.06" x2="86.98" y2="169.91"/><polygon class="cls-1" points="87.34 170.86 86.62 168.96 99.42 164.11 100.14 166.01 87.34 170.86"/><line class="cls-1" x1="101.44" y1="167.85" x2="91.09" y2="176.8"/><polygon class="cls-1" points="91.75 177.56 90.42 176.03 100.78 167.09 102.1 168.62 91.75 177.56"/><line class="cls-1" x1="103.96" y1="169.91" x2="97.31" y2="181.86"/><polygon class="cls-1" points="98.19 182.35 96.42 181.37 103.07 169.41 104.85 170.4 98.19 182.35"/><line class="cls-1" x1="107.03" y1="170.97" x2="104.89" y2="184.48"/><polygon class="cls-1" points="105.89 184.64 103.88 184.32 106.03 170.81 108.04 171.13 105.89 184.64"/><line class="cls-1" x1="110.29" y1="170.91" x2="112.9" y2="184.34"/><polygon class="cls-1" points="111.91 184.53 109.29 171.11 111.28 170.72 113.9 184.15 111.91 184.53"/><line class="cls-1" x1="113.32" y1="169.74" x2="120.39" y2="181.46"/><polygon class="cls-1" points="119.52 181.98 112.45 170.27 114.19 169.22 121.26 180.93 119.52 181.98"/><line class="cls-1" x1="115.77" y1="167.6" x2="126.43" y2="176.18"/><polygon class="cls-1" points="125.79 176.97 115.13 168.4 116.4 166.81 127.06 175.39 125.79 176.97"/><line class="cls-1" x1="117.33" y1="164.75" x2="130.29" y2="169.15"/><polygon class="cls-1" points="129.96 170.11 117.01 165.72 117.66 163.79 130.61 168.19 129.96 170.11"/><path class="cls-1" d="M-15.43,10.71s9.76,4.76,15.15,0c0,0,1.52,2.78,4,.36,0,0,1.52,2.78,3.77.09,0,0,13.55,5.38,16.33-7S11.38-3.11,11.38-3.11s7.27-9.78-8.07-9.78S-6.38-5.62-6.38-5.62-13.83-10-13.92-6c0,0-7-4.58-11-1.26s-3,6.64-3,6.64S-27.61,6.4-15.43,10.71Z"/><path class="cls-1" d="M119.65,116.54s-9.76,4.76-15.15,0c0,0-1.52,2.78-4,.36,0,0-1.52,2.78-3.76.09,0,0-13.55,5.38-16.34-7s12.48-7.27,12.48-7.27-7.27-9.78,8.07-9.78,9.7,7.27,9.7,7.27,7.44-4.4,7.53-.36c0,0,7-4.58,11-1.26s3,6.65,3,6.65S131.83,112.23,119.65,116.54Z"/><path class="cls-1" d="M14.48,173.75s-9.76,4.76-15.14,0c0,0-1.53,2.79-4,.36,0,0-1.53,2.79-3.77.09,0,0-13.55,5.39-16.33-7s12.47-7.27,12.47-7.27-7.27-9.78,8.08-9.78,9.69,7.27,9.69,7.27,7.45-4.39,7.54-.36c0,0,7-4.57,11-1.25s3,6.64,3,6.64S26.67,169.45,14.48,173.75Z"/><circle class="cls-1" cx="108.5" cy="0.7" r="8.21"/><line class="cls-1" x1="117.83" y1="0.7" x2="131.51" y2="0.7"/><rect class="cls-1" x="117.83" y="-0.31" width="13.68" height="2.03"/><line class="cls-1" x1="117.26" y1="-2.5" x2="130.11" y2="-7.19"/><polygon class="cls-1" points="117.61 -1.54 116.91 -3.45 129.76 -8.15 130.46 -6.24 117.61 -1.54"/><line class="cls-1" x1="115.63" y1="-5.31" x2="126.09" y2="-14.13"/><polygon class="cls-1" points="116.28 -4.53 114.97 -6.09 125.43 -14.91 126.74 -13.36 116.28 -4.53"/><line class="cls-1" x1="113.13" y1="-7.39" x2="119.92" y2="-19.27"/><polygon class="cls-1" points="114.01 -6.89 112.25 -7.9 119.04 -19.77 120.81 -18.76 114.01 -6.89"/><line class="cls-1" x1="110.07" y1="-8.49" x2="112.38" y2="-21.98"/><polygon class="cls-1" points="111.07 -8.32 109.07 -8.66 111.37 -22.15 113.38 -21.8 111.07 -8.32"/><line class="cls-1" x1="106.82" y1="-8.47" x2="104.36" y2="-21.93"/><polygon class="cls-1" points="105.82 -8.29 103.36 -21.75 105.36 -22.11 107.82 -8.65 105.82 -8.29"/><line class="cls-1" x1="103.77" y1="-7.34" x2="96.84" y2="-19.13"/><polygon class="cls-1" points="102.9 -6.82 95.96 -18.62 97.72 -19.65 104.65 -7.85 102.9 -6.82"/><line class="cls-1" x1="101.3" y1="-5.23" x2="90.74" y2="-13.93"/><polygon class="cls-1" points="100.65 -4.44 90.09 -13.14 91.39 -14.71 101.94 -6.01 100.65 -4.44"/><line class="cls-1" x1="99.7" y1="-2.4" x2="86.8" y2="-6.94"/><polygon class="cls-1" points="99.36 -1.44 86.46 -5.98 87.14 -7.9 100.04 -3.35 99.36 -1.44"/><line class="cls-1" x1="99.17" y1="0.81" x2="85.49" y2="0.97"/><polygon class="cls-1" points="85.5 1.99 85.48 -0.04 99.16 -0.2 99.18 1.83 85.5 1.99"/><line class="cls-1" x1="99.78" y1="4.01" x2="86.98" y2="8.85"/><polygon class="cls-1" points="87.34 9.8 86.62 7.9 99.42 3.06 100.14 4.96 87.34 9.8"/><line class="cls-1" x1="101.44" y1="6.8" x2="91.09" y2="15.74"/><polygon class="cls-1" points="91.75 16.51 90.42 14.97 100.78 6.03 102.1 7.57 91.75 16.51"/><line class="cls-1" x1="103.96" y1="8.85" x2="97.31" y2="20.8"/><polygon class="cls-1" points="98.19 21.3 96.42 20.31 103.07 8.36 104.85 9.35 98.19 21.3"/><line class="cls-1" x1="107.03" y1="9.91" x2="104.89" y2="23.42"/><polygon class="cls-1" points="105.89 23.58 103.88 23.27 106.03 9.75 108.04 10.07 105.89 23.58"/><line class="cls-1" x1="110.28" y1="9.86" x2="112.9" y2="23.28"/><polygon class="cls-1" points="111.91 23.48 109.29 10.05 111.28 9.66 113.9 23.09 111.91 23.48"/><line class="cls-1" x1="113.32" y1="8.69" x2="120.39" y2="20.4"/><polygon class="cls-1" points="119.52 20.93 112.45 9.21 114.19 8.16 121.26 19.88 119.52 20.93"/><line class="cls-1" x1="115.77" y1="6.55" x2="126.43" y2="15.12"/><polygon class="cls-1" points="125.79 15.91 115.13 7.34 116.4 5.76 127.06 14.33 125.79 15.91"/><line class="cls-1" x1="117.33" y1="3.7" x2="130.29" y2="8.09"/><polygon class="cls-1" points="129.96 9.06 117 4.66 117.66 2.74 130.61 7.13 129.96 9.06"/><path class="cls-1" d="M-1.91,112.83a3.29,3.29,0,0,1,.43-.09l-1,1.27-.5.18,0-.68a3.38,3.38,0,0,0,0-.45l.86-1.15A7,7,0,0,1-1.91,112.83Z"/><path class="cls-1" d="M-16.62,102.17l-.18.25-.75,1.1,1.22-.35a4.9,4.9,0,0,1,2.19-.12A5.22,5.22,0,0,1-12,104a4.9,4.9,0,0,1,2,4.15l0,.67.63-.22a4.87,4.87,0,0,1,4.55.72,5.18,5.18,0,0,1,1.56,1.92,4.91,4.91,0,0,1,.43,1.85l.86-1.15a7,7,0,0,1,.12.92,3.29,3.29,0,0,1,.43-.09l-1,1.27.14-.05A4.85,4.85,0,0,1,0,113.72a4.89,4.89,0,0,1,.84.2,4.62,4.62,0,0,1,.88.39,4.83,4.83,0,0,1,.56.36,4.91,4.91,0,0,1,2,4.16l0,.66.62-.22a5,5,0,0,1,6.49,4.18l.13,1.18.74-1c1.88-2.58,2.62-6.88,1.93-11.22A19.75,19.75,0,0,0,12,106a16.6,16.6,0,0,0-1.93-2.83c-.2-.24-.41-.48-.63-.71a15.42,15.42,0,0,0-2-1.75l-.11-.08c-.21-.16-.43-.31-.65-.46A17.5,17.5,0,0,0,.84,97.63a21.56,21.56,0,0,0-7-.38C-10.69,97.74-14.72,99.62-16.62,102.17Z"/><path class="cls-1" d="M-9.6,129.76l-.24.31-.75-.56.23-.3ZM8.8,99c.14,0-9.09,12.23-9,12.34h0L-12.4,127.6a1.54,1.54,0,0,0-.31,1.05,1.21,1.21,0,0,0,.48.89,1.38,1.38,0,0,0,1.91-.39h0l.74.56h0a2.36,2.36,0,0,1-3.31.65,2.41,2.41,0,0,1-.25-3.36L7.62,99.22A.87.87,0,0,1,8.78,99Z"/><path class="cls-1" d="M102.8,48.27a.62.62,0,0,1-.46-.19L98.7,44.44a.65.65,0,0,1,0-.93.67.67,0,0,1,.93,0l3.64,3.64a.67.67,0,0,1,0,.93A.66.66,0,0,1,102.8,48.27Z"/><path class="cls-1" d="M105.59,47.42a.66.66,0,0,1-.47-.19l-2.86-2.86a.67.67,0,0,1,0-.93.65.65,0,0,1,.93,0l2.86,2.86a.66.66,0,0,1-.46,1.12Z"/><path class="cls-1" d="M108.78,47.49a.66.66,0,0,1-.47-.19l-3.23-3.23a.67.67,0,0,1,0-.93.65.65,0,0,1,.93,0l3.23,3.23a.65.65,0,0,1,0,.93A.62.62,0,0,1,108.78,47.49Z"/><path class="cls-1" d="M107.33,52.13a.62.62,0,0,1-.46-.19l-2.53-2.52a.66.66,0,0,1,.93-.93L107.8,51a.67.67,0,0,1,0,.93A.66.66,0,0,1,107.33,52.13Z"/><path class="cls-1" d="M104,53.51a.7.7,0,0,1-.47-.19l-3.82-3.83a.66.66,0,0,1,.93-.93l3.82,3.82a.66.66,0,0,1,0,.94A.68.68,0,0,1,104,53.51Z"/><path class="cls-1" d="M103.21,56.55a.62.62,0,0,1-.46-.19l-2.64-2.64a.65.65,0,0,1,0-.93.67.67,0,0,1,.93,0l2.64,2.64a.67.67,0,0,1,0,.93A.66.66,0,0,1,103.21,56.55Z"/><path class="cls-1" d="M108.79,57.43a.66.66,0,0,1-.47-.19l-2.2-2.2a.67.67,0,0,1,0-.93.65.65,0,0,1,.93,0l2.2,2.2a.65.65,0,0,1,0,.93A.63.63,0,0,1,108.79,57.43Z"/><path class="cls-1" d="M112.86,57.81a.63.63,0,0,1-.46-.19l-3.23-3.23a.66.66,0,1,1,.93-.93l3.23,3.23a.67.67,0,0,1,0,.93A.66.66,0,0,1,112.86,57.81Z"/><path class="cls-1" d="M113.2,53.62a.66.66,0,0,1-.47-.19l-3.86-3.86a.66.66,0,0,1,.93-.93l3.86,3.86a.66.66,0,0,1-.46,1.12Z"/><path class="cls-1" d="M114.74,49.93a.67.67,0,0,1-.47-.2l-3.47-3.47a.66.66,0,0,1,.93-.93l3.47,3.47a.65.65,0,0,1,0,.93A.66.66,0,0,1,114.74,49.93Z"/><path class="cls-1" d="M118.06,59.45a.67.67,0,0,1-.47-.2l-3.67-3.67a.66.66,0,1,1,.93-.93l3.67,3.67a.65.65,0,0,1,0,.93A.63.63,0,0,1,118.06,59.45Z"/><path class="cls-1" d="M117.28,54.29a.67.67,0,0,1-.47-.2l-2.15-2.15a.66.66,0,1,1,.93-.93l2.15,2.15a.66.66,0,0,1,0,.93A.67.67,0,0,1,117.28,54.29Z"/><path class="cls-1" d="M109.15,61.53a.67.67,0,0,1-.47-.2l-3.52-3.52a.66.66,0,1,1,.93-.93l3.53,3.52a.67.67,0,0,1-.47,1.13Z"/><path class="cls-1" d="M104,60.93a.62.62,0,0,1-.46-.19l-3.33-3.32a.67.67,0,0,1,0-.93.65.65,0,0,1,.93,0l3.33,3.32a.67.67,0,0,1,0,.93A.66.66,0,0,1,104,60.93Z"/><path class="cls-1" d="M98.12,51.61a.67.67,0,0,1-.47-.2L94.84,48.6a.66.66,0,0,1,.93-.93l2.81,2.81a.65.65,0,0,1,0,.93A.66.66,0,0,1,98.12,51.61Z"/><path class="cls-1" d="M97.86,55.44a.7.7,0,0,1-.46-.19l-2.78-2.79a.66.66,0,0,1,.93-.93l2.78,2.78a.66.66,0,0,1,0,.94A.7.7,0,0,1,97.86,55.44Z"/><path class="cls-1" d="M98,59.62a.66.66,0,0,1-.47-.19l-2.74-2.74a.66.66,0,1,1,.93-.93l2.74,2.74a.65.65,0,0,1,0,.93A.63.63,0,0,1,98,59.62Z"/><path class="cls-1" d="M103.8,65.76a.7.7,0,0,1-.46-.19l-3.82-3.83a.66.66,0,0,1,.93-.93l3.82,3.82a.66.66,0,0,1,0,.94A.7.7,0,0,1,103.8,65.76Z"/><path class="cls-1" d="M98.52,64a.63.63,0,0,1-.46-.19L95,60.78a.66.66,0,1,1,.93-.93L99,62.92A.66.66,0,0,1,98.52,64Z"/><path class="cls-1" d="M108.56,66a.66.66,0,0,1-.47-.19L105.6,63.3a.67.67,0,0,1,0-.93.65.65,0,0,1,.93,0L109,64.86a.66.66,0,0,1-.46,1.12Z"/><path class="cls-1" d="M113.21,62.3a.7.7,0,0,1-.47-.19l-2.53-2.54a.66.66,0,0,1,.93-.93l2.53,2.54a.65.65,0,0,1,0,.93A.68.68,0,0,1,113.21,62.3Z"/><path class="cls-1" d="M113,66.17a.66.66,0,0,1-.47-.19l-2.32-2.33a.65.65,0,0,1,0-.93.67.67,0,0,1,.93,0l2.32,2.33a.66.66,0,0,1-.46,1.12Z"/><path class="cls-1" d="M117.05,62.58a.65.65,0,0,1-.46-.19l-2.82-2.82a.66.66,0,0,1,.93-.93l2.82,2.82a.66.66,0,0,1-.47,1.12Z"/><path class="cls-1" d="M109.37,44.08a.68.68,0,0,1-.46-.19l-3.31-3.31a.66.66,0,1,1,.93-.93L109.84,43a.67.67,0,0,1,0,.93A.7.7,0,0,1,109.37,44.08Z"/><path class="cls-1" d="M114.38,45.44a.66.66,0,0,1-.47-.19l-4.08-4.07a.66.66,0,0,1,.94-.93l4.07,4.07a.66.66,0,0,1-.46,1.12Z"/><path class="cls-1" d="M119.27,50.82a.67.67,0,0,1-.47-.2l-3.06-3.06a.66.66,0,1,1,.93-.93l3.06,3.06a.65.65,0,0,1,0,.93A.66.66,0,0,1,119.27,50.82Z"/><path class="cls-1" d="M120.7,54.65a.66.66,0,0,1-.47-.19l-3-3a.66.66,0,1,1,.93-.93l3,3a.67.67,0,0,1,0,.93A.66.66,0,0,1,120.7,54.65Z"/><path class="cls-1" d="M120.7,58.44a.66.66,0,0,1-.46-.2L118,56a.67.67,0,0,1,0-.93.65.65,0,0,1,.93,0l2.24,2.23a.65.65,0,0,1,0,.93A.67.67,0,0,1,120.7,58.44Z"/><path class="cls-1" d="M118.51,46a.66.66,0,0,1-.46-.2l-3.61-3.61a.65.65,0,0,1,0-.93.67.67,0,0,1,.93,0L119,44.91a.65.65,0,0,1,0,.93A.67.67,0,0,1,118.51,46Z"/><path class="cls-1" d="M98.21,47.37a.66.66,0,0,1-.46-.2L94.62,44a.66.66,0,0,1,.93-.93l3.13,3.13a.65.65,0,0,1,0,.93A.67.67,0,0,1,98.21,47.37Z"/><path class="cls-1" d="M154.58,105.81a.65.65,0,0,1-.46-.19L150.48,102a.65.65,0,0,1,0-.93.67.67,0,0,1,.93,0l3.64,3.64a.66.66,0,0,1-.47,1.12Z"/><path class="cls-1" d="M157.37,105a.66.66,0,0,1-.47-.19L154,101.91A.66.66,0,1,1,155,101l2.85,2.86a.65.65,0,0,1,0,.93A.62.62,0,0,1,157.37,105Z"/><path class="cls-1" d="M160.56,105a.66.66,0,0,1-.47-.19l-3.22-3.23a.66.66,0,0,1,.93-.93l3.23,3.23a.67.67,0,0,1,0,.93A.66.66,0,0,1,160.56,105Z"/><path class="cls-1" d="M159.11,109.67a.65.65,0,0,1-.46-.19L156.12,107a.67.67,0,0,1,0-.93.65.65,0,0,1,.93,0l2.53,2.52a.66.66,0,0,1-.47,1.12Z"/><path class="cls-1" d="M155.81,111.05a.7.7,0,0,1-.47-.19L151.52,107a.66.66,0,0,1,.93-.93l3.83,3.82a.68.68,0,0,1,0,.94A.7.7,0,0,1,155.81,111.05Z"/><path class="cls-1" d="M155,114.09a.65.65,0,0,1-.46-.19l-2.64-2.64a.65.65,0,0,1,0-.93.67.67,0,0,1,.93,0l2.64,2.64a.66.66,0,0,1-.47,1.12Z"/><path class="cls-1" d="M160.57,115a.66.66,0,0,1-.47-.19l-2.19-2.2a.66.66,0,0,1,.93-.93l2.2,2.2a.67.67,0,0,1,0,.93A.66.66,0,0,1,160.57,115Z"/><path class="cls-1" d="M164.64,115.35a.65.65,0,0,1-.46-.19L161,111.93a.66.66,0,0,1,.93-.93l3.23,3.23a.66.66,0,0,1-.47,1.12Z"/><path class="cls-1" d="M165,111.16a.7.7,0,0,1-.47-.19l-3.86-3.86a.68.68,0,0,1,0-.94.67.67,0,0,1,.93,0l3.86,3.87a.65.65,0,0,1,0,.93A.66.66,0,0,1,165,111.16Z"/><path class="cls-1" d="M166.52,107.47a.67.67,0,0,1-.47-.2l-3.47-3.47a.67.67,0,0,1,0-.93.65.65,0,0,1,.93,0l3.47,3.47a.65.65,0,0,1,0,.93A.63.63,0,0,1,166.52,107.47Z"/><path class="cls-1" d="M169.84,117a.63.63,0,0,1-.46-.2l-3.68-3.67a.66.66,0,0,1,.93-.93l3.68,3.67a.67.67,0,0,1-.47,1.13Z"/><path class="cls-1" d="M169.06,111.83a.63.63,0,0,1-.46-.2l-2.16-2.15a.66.66,0,1,1,.94-.93l2.15,2.15a.67.67,0,0,1-.47,1.13Z"/><path class="cls-1" d="M160.93,119.07a.65.65,0,0,1-.46-.2l-3.53-3.52a.66.66,0,1,1,.93-.93l3.53,3.52a.65.65,0,0,1,0,.93A.67.67,0,0,1,160.93,119.07Z"/><path class="cls-1" d="M155.75,118.47a.63.63,0,0,1-.46-.19L152,115a.66.66,0,0,1,.93-.93l3.32,3.32a.66.66,0,0,1-.47,1.12Z"/><path class="cls-1" d="M149.9,109.15a.67.67,0,0,1-.47-.2l-2.81-2.81a.66.66,0,0,1,.93-.93l2.81,2.81a.67.67,0,0,1-.46,1.13Z"/><path class="cls-1" d="M149.65,113a.7.7,0,0,1-.47-.19L146.4,110a.66.66,0,0,1,.93-.93l2.78,2.78a.66.66,0,0,1,0,.94A.68.68,0,0,1,149.65,113Z"/><path class="cls-1" d="M149.75,117.16a.66.66,0,0,1-.47-.19l-2.73-2.74a.65.65,0,0,1,0-.93.66.66,0,0,1,.93,0l2.73,2.74a.65.65,0,0,1,0,.93A.62.62,0,0,1,149.75,117.16Z"/><path class="cls-1" d="M155.59,123.3a.7.7,0,0,1-.47-.19l-3.82-3.83a.66.66,0,1,1,.93-.93l3.82,3.82a.65.65,0,0,1,0,.93A.66.66,0,0,1,155.59,123.3Z"/><path class="cls-1" d="M150.31,121.58a.66.66,0,0,1-.47-.19l-3.07-3.07a.66.66,0,0,1,.93-.93l3.07,3.07a.66.66,0,0,1-.46,1.12Z"/><path class="cls-1" d="M160.34,123.52a.66.66,0,0,1-.47-.19l-2.49-2.49a.66.66,0,1,1,.94-.93l2.48,2.49a.65.65,0,0,1,0,.93A.63.63,0,0,1,160.34,123.52Z"/><path class="cls-1" d="M165,119.84a.7.7,0,0,1-.47-.19L162,117.11a.66.66,0,1,1,.93-.93l2.54,2.53a.68.68,0,0,1,0,.94A.7.7,0,0,1,165,119.84Z"/><path class="cls-1" d="M164.78,123.71a.66.66,0,0,1-.47-.19L162,121.19a.65.65,0,0,1,0-.93.67.67,0,0,1,.93,0l2.32,2.33a.65.65,0,0,1-.46,1.12Z"/><path class="cls-1" d="M168.84,120.12a.66.66,0,0,1-.47-.19l-2.82-2.82a.66.66,0,1,1,.93-.93L169.3,119a.66.66,0,0,1-.46,1.12Z"/><path class="cls-1" d="M161.16,101.62a.7.7,0,0,1-.47-.19l-3.3-3.31a.66.66,0,1,1,.93-.93l3.3,3.31a.65.65,0,0,1,0,.93A.7.7,0,0,1,161.16,101.62Z"/><path class="cls-1" d="M166.16,103a.66.66,0,0,1-.47-.19l-4.07-4.07a.66.66,0,1,1,.93-.93l4.07,4.07a.65.65,0,0,1,0,.93A.63.63,0,0,1,166.16,103Z"/><path class="cls-1" d="M171.05,108.36a.67.67,0,0,1-.47-.2l-3.06-3.06a.66.66,0,0,1,.93-.93l3.06,3.06a.67.67,0,0,1-.46,1.13Z"/><path class="cls-1" d="M172.48,112.19A.62.62,0,0,1,172,112l-3-3a.66.66,0,1,1,.93-.93l3,3a.67.67,0,0,1,0,.93A.66.66,0,0,1,172.48,112.19Z"/><path class="cls-1" d="M172.49,116a.67.67,0,0,1-.47-.2l-2.24-2.23a.66.66,0,0,1,.94-.93l2.23,2.23a.65.65,0,0,1,0,.93A.66.66,0,0,1,172.49,116Z"/><path class="cls-1" d="M170.3,103.58a.67.67,0,0,1-.47-.2l-3.61-3.61a.65.65,0,0,1,0-.93.67.67,0,0,1,.93,0l3.61,3.61a.65.65,0,0,1,0,.93A.66.66,0,0,1,170.3,103.58Z"/><path class="cls-1" d="M150,104.91a.67.67,0,0,1-.47-.2l-3.13-3.13a.66.66,0,0,1,.93-.93l3.13,3.13a.67.67,0,0,1-.46,1.13Z"/><path class="cls-1" d="M54.72,105.6a.66.66,0,0,1-.47-1.12l3.64-3.64a.66.66,0,0,1,.93.93l-3.64,3.64A.63.63,0,0,1,54.72,105.6Z"/><path class="cls-1" d="M55.57,108.38a.66.66,0,0,1-.47-.19.67.67,0,0,1,0-.93L58,104.4a.67.67,0,0,1,.93,0,.65.65,0,0,1,0,.93L56,108.19A.66.66,0,0,1,55.57,108.38Z"/><path class="cls-1" d="M55.5,111.58a.67.67,0,0,1-.47-.2.65.65,0,0,1,0-.93l3.23-3.23a.67.67,0,0,1,.93,0,.65.65,0,0,1,0,.93L56,111.38A.66.66,0,0,1,55.5,111.58Z"/><path class="cls-1" d="M50.86,110.13a.7.7,0,0,1-.47-.19.66.66,0,0,1,0-.94l2.53-2.52a.65.65,0,0,1,.93,0,.67.67,0,0,1,0,.93l-2.53,2.53A.7.7,0,0,1,50.86,110.13Z"/><path class="cls-1" d="M49.48,106.83A.67.67,0,0,1,49,105.7l3.82-3.82a.66.66,0,1,1,.93.93L50,106.63A.67.67,0,0,1,49.48,106.83Z"/><path class="cls-1" d="M46.44,106a.7.7,0,0,1-.47-.19.68.68,0,0,1,0-.94l2.64-2.63a.66.66,0,1,1,.93.93l-2.64,2.64A.66.66,0,0,1,46.44,106Z"/><path class="cls-1" d="M45.56,111.59a.67.67,0,0,1-.47-.2.65.65,0,0,1,0-.93l2.2-2.2a.67.67,0,0,1,.93,0,.65.65,0,0,1,0,.93l-2.2,2.2A.65.65,0,0,1,45.56,111.59Z"/><path class="cls-1" d="M45.18,115.66a.66.66,0,0,1-.47-1.12l3.23-3.23a.66.66,0,0,1,.93.93l-3.23,3.23A.65.65,0,0,1,45.18,115.66Z"/><path class="cls-1" d="M49.37,116a.62.62,0,0,1-.46-.19.65.65,0,0,1,0-.93L52.77,111a.65.65,0,0,1,.93,0,.67.67,0,0,1,0,.93l-3.86,3.86A.66.66,0,0,1,49.37,116Z"/><path class="cls-1" d="M53.06,117.54a.66.66,0,0,1-.46-.2.65.65,0,0,1,0-.93l3.47-3.47a.66.66,0,0,1,.93.93l-3.47,3.47A.67.67,0,0,1,53.06,117.54Z"/><path class="cls-1" d="M43.54,120.86a.68.68,0,0,1-.46-.19.66.66,0,0,1,0-.94l3.67-3.67a.66.66,0,0,1,.93.93L44,120.67A.7.7,0,0,1,43.54,120.86Z"/><path class="cls-1" d="M48.7,120.08a.67.67,0,0,1-.46-1.13l2.15-2.15a.66.66,0,1,1,.93.93l-2.15,2.15A.67.67,0,0,1,48.7,120.08Z"/><path class="cls-1" d="M41.46,112a.7.7,0,0,1-.46-.19.65.65,0,0,1,0-.93l3.53-3.53a.65.65,0,0,1,.93,0,.67.67,0,0,1,0,.93l-3.53,3.53A.7.7,0,0,1,41.46,112Z"/><path class="cls-1" d="M42.06,106.77a.66.66,0,0,1-.47-.19.67.67,0,0,1,0-.93l3.33-3.33a.66.66,0,1,1,.93.93l-3.33,3.33A.62.62,0,0,1,42.06,106.77Z"/><path class="cls-1" d="M51.38,100.91a.66.66,0,0,1-.46-1.12L53.73,97a.66.66,0,1,1,.93.93l-2.81,2.81A.66.66,0,0,1,51.38,100.91Z"/><path class="cls-1" d="M47.55,100.66a.63.63,0,0,1-.46-.19.65.65,0,0,1,0-.93l2.78-2.78a.66.66,0,1,1,.93.93L48,100.47A.66.66,0,0,1,47.55,100.66Z"/><path class="cls-1" d="M43.37,100.77a.67.67,0,0,1-.47-.2.65.65,0,0,1,0-.93l2.74-2.74a.67.67,0,0,1,.93,0,.65.65,0,0,1,0,.93l-2.74,2.74A.65.65,0,0,1,43.37,100.77Z"/><path class="cls-1" d="M37.23,106.6a.63.63,0,0,1-.46-.19.65.65,0,0,1,0-.93l3.82-3.82a.66.66,0,1,1,.93.93l-3.82,3.82A.66.66,0,0,1,37.23,106.6Z"/><path class="cls-1" d="M39,101.32a.66.66,0,0,1-.47-.19.67.67,0,0,1,0-.93l3.08-3.07a.65.65,0,0,1,.93,0,.67.67,0,0,1,0,.93l-3.08,3.07A.62.62,0,0,1,39,101.32Z"/><path class="cls-1" d="M37,111.35a.66.66,0,0,1-.47-.19.67.67,0,0,1,0-.93L39,107.74a.67.67,0,0,1,.93,0,.65.65,0,0,1,0,.93l-2.49,2.49A.62.62,0,0,1,37,111.35Z"/><path class="cls-1" d="M40.69,116a.63.63,0,0,1-.46-.2.65.65,0,0,1,0-.93l2.53-2.53a.66.66,0,0,1,.93.93l-2.53,2.53A.67.67,0,0,1,40.69,116Z"/><path class="cls-1" d="M36.82,115.79a.66.66,0,0,1-.47-.19.67.67,0,0,1,0-.93l2.33-2.32a.66.66,0,0,1,.93.93l-2.33,2.32A.62.62,0,0,1,36.82,115.79Z"/><path class="cls-1" d="M40.41,119.85a.66.66,0,0,1-.47-.19.67.67,0,0,1,0-.93l2.82-2.82a.66.66,0,0,1,.93.93l-2.82,2.82A.62.62,0,0,1,40.41,119.85Z"/><path class="cls-1" d="M58.91,112.17a.62.62,0,0,1-.46-.19.65.65,0,0,1,0-.93l3.3-3.31a.67.67,0,0,1,.93,0,.65.65,0,0,1,0,.93L59.38,112A.66.66,0,0,1,58.91,112.17Z"/><path class="cls-1" d="M57.55,117.17a.66.66,0,0,1-.47-.19.67.67,0,0,1,0-.93L61.16,112a.67.67,0,0,1,.93,0,.68.68,0,0,1,0,.94L58,117A.63.63,0,0,1,57.55,117.17Z"/><path class="cls-1" d="M52.17,122.06a.66.66,0,0,1-.46-1.12l3.06-3.06a.66.66,0,0,1,.93.93l-3.06,3.06A.66.66,0,0,1,52.17,122.06Z"/><path class="cls-1" d="M48.34,123.5a.67.67,0,0,1-.47-.2.65.65,0,0,1,0-.93l3-3a.65.65,0,0,1,.93,0,.67.67,0,0,1,0,.93l-3,3A.66.66,0,0,1,48.34,123.5Z"/><path class="cls-1" d="M44.55,123.5a.66.66,0,0,1-.46-1.12l2.24-2.24a.66.66,0,1,1,.93.93L45,123.31A.66.66,0,0,1,44.55,123.5Z"/><path class="cls-1" d="M57,121.31a.63.63,0,0,1-.46-.19.65.65,0,0,1,0-.93l3.61-3.61a.66.66,0,0,1,.93.93l-3.61,3.61A.66.66,0,0,1,57,121.31Z"/><path class="cls-1" d="M55.62,101a.66.66,0,0,1-.46-1.12l3.13-3.13a.66.66,0,1,1,.93.93l-3.13,3.13A.66.66,0,0,1,55.62,101Z"/><polygon class="cls-1" points="51.98 37.16 43.9 48.19 48.78 45.96 40.61 58.17 48.78 50.14 33.94 71.03 59.81 56.54 47.81 58.17 62.74 48.36 55.19 48.36 68.7 37.7 51.98 37.16"/><polygon class="cls-1" points="158.52 37.16 150.43 48.19 155.32 45.96 147.15 58.17 155.32 50.14 140.48 71.03 166.35 56.54 154.35 58.17 169.28 48.36 161.72 48.36 175.24 37.7 158.52 37.16"/><polygon class="cls-1" points="54.26 148.78 62.34 159.81 57.45 157.58 65.63 169.79 57.45 161.76 72.3 182.65 46.43 168.16 58.43 169.79 43.5 159.98 51.05 159.98 37.54 149.31 54.26 148.78"/><circle class="cls-1" cx="216.98" cy="55.04" r="8.21"/><line class="cls-1" x1="226.31" y1="55.04" x2="239.99" y2="55.04"/><rect class="cls-1" x="226.31" y="54.02" width="13.68" height="2.03"/><line class="cls-1" x1="225.74" y1="51.83" x2="238.59" y2="47.14"/><polygon class="cls-1" points="226.09 52.79 225.4 50.88 238.24 46.18 238.94 48.09 226.09 52.79"/><line class="cls-1" x1="224.11" y1="49.02" x2="234.57" y2="40.2"/><polygon class="cls-1" points="224.77 49.8 223.46 48.24 233.91 39.42 235.22 40.98 224.77 49.8"/><line class="cls-1" x1="221.62" y1="46.94" x2="228.41" y2="35.07"/><polygon class="cls-1" points="222.5 47.44 220.73 46.44 227.53 34.56 229.29 35.57 222.5 47.44"/><line class="cls-1" x1="218.56" y1="45.84" x2="220.86" y2="32.36"/><polygon class="cls-1" points="219.56 46.01 217.55 45.67 219.86 32.19 221.86 32.53 219.56 46.01"/><line class="cls-1" x1="215.3" y1="45.86" x2="212.84" y2="32.4"/><polygon class="cls-1" points="214.31 46.04 211.84 32.59 213.84 32.22 216.3 45.68 214.31 46.04"/><line class="cls-1" x1="212.26" y1="46.99" x2="205.32" y2="35.2"/><polygon class="cls-1" points="211.38 47.51 204.45 35.71 206.2 34.69 213.13 46.48 211.38 47.51"/><line class="cls-1" x1="209.78" y1="49.1" x2="199.22" y2="40.41"/><polygon class="cls-1" points="209.14 49.89 198.58 41.19 199.87 39.62 210.43 48.32 209.14 49.89"/><line class="cls-1" x1="208.19" y1="51.94" x2="195.28" y2="47.39"/><polygon class="cls-1" points="207.85 52.9 194.94 48.35 195.62 46.43 208.52 50.98 207.85 52.9"/><line class="cls-1" x1="207.66" y1="55.14" x2="193.98" y2="55.3"/><polygon class="cls-1" points="193.99 56.32 193.97 54.29 207.65 54.13 207.67 56.16 193.99 56.32"/><line class="cls-1" x1="208.26" y1="58.34" x2="195.47" y2="63.18"/><polygon class="cls-1" points="195.83 64.13 195.11 62.23 207.9 57.39 208.62 59.29 195.83 64.13"/><line class="cls-1" x1="209.92" y1="61.13" x2="199.57" y2="70.07"/><polygon class="cls-1" points="200.23 70.84 198.91 69.31 209.26 60.36 210.59 61.9 200.23 70.84"/><line class="cls-1" x1="212.45" y1="63.18" x2="205.79" y2="75.14"/><polygon class="cls-1" points="206.68 75.63 204.9 74.64 211.56 62.69 213.33 63.68 206.68 75.63"/><line class="cls-1" x1="215.52" y1="64.25" x2="213.37" y2="77.76"/><polygon class="cls-1" points="214.37 77.92 212.37 77.6 214.52 64.09 216.52 64.41 214.37 77.92"/><line class="cls-1" x1="218.77" y1="64.19" x2="221.39" y2="77.62"/><polygon class="cls-1" points="220.39 77.81 217.77 64.39 219.77 63.99 222.39 77.42 220.39 77.81"/><line class="cls-1" x1="221.8" y1="63.02" x2="228.87" y2="74.73"/><polygon class="cls-1" points="228 75.26 220.93 63.55 222.67 62.5 229.74 74.21 228 75.26"/><line class="cls-1" x1="224.25" y1="60.88" x2="234.91" y2="69.46"/><polygon class="cls-1" points="234.27 70.25 223.61 61.67 224.89 60.09 235.55 68.67 234.27 70.25"/><line class="cls-1" x1="225.82" y1="58.03" x2="238.77" y2="62.43"/><polygon class="cls-1" points="238.44 63.39 225.49 58.99 226.14 57.07 239.1 61.46 238.44 63.39"/><path class="cls-1" d="M200.57,10.71s9.76,4.76,15.15,0c0,0,1.52,2.78,4,.36,0,0,1.52,2.78,3.77.09,0,0,13.55,5.38,16.33-7s-12.48-7.27-12.48-7.27,7.27-9.78-8.07-9.78-9.69,7.27-9.69,7.27S202.17-10,202.08-6c0,0-7-4.58-11-1.26s-3,6.64-3,6.64S188.39,6.4,200.57,10.71Z"/><path class="cls-1" d="M230.48,173.75s-9.76,4.76-15.14,0c0,0-1.53,2.79-4,.36,0,0-1.53,2.79-3.77.09,0,0-13.55,5.39-16.33-7s12.47-7.27,12.47-7.27-7.27-9.78,8.08-9.78,9.69,7.27,9.69,7.27,7.45-4.39,7.54-.36c0,0,7-4.57,11-1.25s3,6.64,3,6.64S242.67,169.45,230.48,173.75Z"/><path class="cls-1" d="M214.09,112.83a3.29,3.29,0,0,1,.43-.09l-1,1.27-.5.18,0-.68a3.38,3.38,0,0,0,0-.45l.86-1.15A7,7,0,0,1,214.09,112.83Z"/><path class="cls-1" d="M199.38,102.17l-.18.25-.75,1.1,1.22-.35a4.9,4.9,0,0,1,2.19-.12A5.22,5.22,0,0,1,204,104a4.9,4.9,0,0,1,2,4.15l0,.67.63-.22a4.87,4.87,0,0,1,4.55.72,5.18,5.18,0,0,1,1.56,1.92,4.91,4.91,0,0,1,.43,1.85l.86-1.15a7,7,0,0,1,.12.92,3.29,3.29,0,0,1,.43-.09l-1,1.27.14-.05a4.8,4.8,0,0,1,3.17,0,4.62,4.62,0,0,1,.88.39,4.83,4.83,0,0,1,.56.36,4.91,4.91,0,0,1,2,4.16l0,.66.62-.22a5,5,0,0,1,6.49,4.18l.13,1.18.74-1c1.88-2.58,2.62-6.88,1.93-11.22A19.75,19.75,0,0,0,228,106a16.6,16.6,0,0,0-1.93-2.83c-.2-.24-.41-.48-.63-.71a15.42,15.42,0,0,0-2-1.75l-.11-.08c-.21-.16-.43-.31-.65-.46a17.5,17.5,0,0,0-5.91-2.52,21.56,21.56,0,0,0-7-.38C205.31,97.74,201.28,99.62,199.38,102.17Z"/><path class="cls-1" d="M206.4,129.76l-.24.31-.75-.56.23-.3ZM224.8,99c.14,0-9.09,12.23-9.05,12.34h0L203.6,127.6a1.54,1.54,0,0,0-.31,1.05,1.21,1.21,0,0,0,.48.89,1.38,1.38,0,0,0,1.91-.39h0l.74.56h0a2.36,2.36,0,0,1-3.31.65,2.41,2.41,0,0,1-.25-3.36l20.75-27.78a.87.87,0,0,1,1.16-.26Z"/><path class="cls-1" d="M166.08-3.55a.66.66,0,0,1-.47-.19.65.65,0,0,1,0-.93l3.64-3.64a.67.67,0,0,1,.93,0,.65.65,0,0,1,0,.93l-3.64,3.64A.63.63,0,0,1,166.08-3.55Z"/><path class="cls-1" d="M166.93-.76a.67.67,0,0,1-.47-.2.67.67,0,0,1,0-.93l2.86-2.85a.65.65,0,0,1,.93,0,.65.65,0,0,1,0,.93L167.4-1A.67.67,0,0,1,166.93-.76Z"/><path class="cls-1" d="M166.86,2.43a.66.66,0,0,1-.47-1.12l3.23-3.23a.65.65,0,0,1,.93,0,.65.65,0,0,1,0,.93l-3.23,3.23A.65.65,0,0,1,166.86,2.43Z"/><path class="cls-1" d="M162.22,1a.66.66,0,0,1-.47-1.12l2.53-2.53a.67.67,0,0,1,.93,0,.68.68,0,0,1,0,.94L162.68.79A.65.65,0,0,1,162.22,1Z"/><path class="cls-1" d="M160.84-2.32a.68.68,0,0,1-.46-.19.65.65,0,0,1,0-.93l3.82-3.83a.66.66,0,0,1,.93,0,.65.65,0,0,1,0,.93l-3.82,3.83A.7.7,0,0,1,160.84-2.32Z"/><path class="cls-1" d="M157.8-3.14a.66.66,0,0,1-.47-.19.67.67,0,0,1,0-.93L160-6.9a.67.67,0,0,1,.93,0,.65.65,0,0,1,0,.93l-2.64,2.64A.62.62,0,0,1,157.8-3.14Z"/><path class="cls-1" d="M156.92,2.44a.66.66,0,0,1-.47-1.12l2.2-2.2a.65.65,0,0,1,.93,0,.65.65,0,0,1,0,.93l-2.2,2.2A.65.65,0,0,1,156.92,2.44Z"/><path class="cls-1" d="M156.54,6.51a.66.66,0,0,1-.47-1.12l3.23-3.23a.66.66,0,0,1,.93.93L157,6.32A.63.63,0,0,1,156.54,6.51Z"/><path class="cls-1" d="M160.73,6.85a.66.66,0,0,1-.46-1.13l3.86-3.86a.67.67,0,0,1,.93,0,.65.65,0,0,1,0,.93L161.2,6.66A.7.7,0,0,1,160.73,6.85Z"/><path class="cls-1" d="M164.42,8.39A.7.7,0,0,1,164,8.2a.65.65,0,0,1,0-.93l3.47-3.48a.67.67,0,0,1,.93,0,.65.65,0,0,1,0,.93L164.89,8.2A.7.7,0,0,1,164.42,8.39Z"/><path class="cls-1" d="M154.9,11.71a.66.66,0,0,1-.46-1.12l3.67-3.68a.67.67,0,0,1,.93,0,.65.65,0,0,1,0,.93l-3.67,3.68A.66.66,0,0,1,154.9,11.71Z"/><path class="cls-1" d="M160.06,10.93a.66.66,0,0,1-.46-1.12l2.15-2.16a.66.66,0,0,1,.93.94l-2.15,2.15A.66.66,0,0,1,160.06,10.93Z"/><path class="cls-1" d="M152.82,2.8a.66.66,0,0,1-.46-1.12l3.53-3.53a.65.65,0,0,1,.93,0,.67.67,0,0,1,0,.93l-3.53,3.53A.66.66,0,0,1,152.82,2.8Z"/><path class="cls-1" d="M153.42-2.38a.66.66,0,0,1-.47-.19.67.67,0,0,1,0-.93l3.33-3.32a.65.65,0,0,1,.93,0,.67.67,0,0,1,0,.93l-3.33,3.32A.62.62,0,0,1,153.42-2.38Z"/><path class="cls-1" d="M162.75-8.23a.67.67,0,0,1-.47-.2.65.65,0,0,1,0-.93l2.81-2.81a.65.65,0,0,1,.93,0,.65.65,0,0,1,0,.93l-2.81,2.81A.66.66,0,0,1,162.75-8.23Z"/><path class="cls-1" d="M158.91-8.48a.66.66,0,0,1-.46-.2.65.65,0,0,1,0-.93l2.78-2.78a.65.65,0,0,1,.93,0,.65.65,0,0,1,0,.93l-2.78,2.78A.67.67,0,0,1,158.91-8.48Z"/><path class="cls-1" d="M154.73-8.38a.7.7,0,0,1-.47-.19.65.65,0,0,1,0-.93L157-12.24a.65.65,0,0,1,.93,0,.65.65,0,0,1,0,.93l-2.74,2.74A.68.68,0,0,1,154.73-8.38Z"/><path class="cls-1" d="M148.59-2.54a.65.65,0,0,1-.46-.2.65.65,0,0,1,0-.93L152-7.49a.65.65,0,0,1,.93,0,.65.65,0,0,1,0,.93l-3.82,3.82A.67.67,0,0,1,148.59-2.54Z"/><path class="cls-1" d="M150.31-7.82a.67.67,0,0,1-.47-.2.67.67,0,0,1,0-.93L152.92-12a.65.65,0,0,1,.93,0,.67.67,0,0,1,0,.93L150.78-8A.67.67,0,0,1,150.31-7.82Z"/><path class="cls-1" d="M148.37,2.21A.7.7,0,0,1,147.9,2a.68.68,0,0,1,0-.94l2.49-2.48a.65.65,0,0,1,.93,0,.65.65,0,0,1,0,.93L148.84,2A.7.7,0,0,1,148.37,2.21Z"/><path class="cls-1" d="M152.05,6.86a.66.66,0,0,1-.46-.19.65.65,0,0,1,0-.93l2.53-2.54a.66.66,0,0,1,.93.93l-2.53,2.54A.7.7,0,0,1,152.05,6.86Z"/><path class="cls-1" d="M148.18,6.65a.7.7,0,0,1-.47-.19.68.68,0,0,1,0-.94L150,3.2a.66.66,0,0,1,.93.93l-2.33,2.33A.66.66,0,0,1,148.18,6.65Z"/><path class="cls-1" d="M151.77,10.71a.67.67,0,0,1-.47-1.13l2.82-2.82a.67.67,0,0,1,.93,0,.65.65,0,0,1,0,.93l-2.82,2.82A.63.63,0,0,1,151.77,10.71Z"/><path class="cls-1" d="M170.27,3a.62.62,0,0,1-.46-.19.65.65,0,0,1,0-.93l3.3-3.3a.65.65,0,0,1,.93,0,.65.65,0,0,1,0,.93l-3.3,3.3A.66.66,0,0,1,170.27,3Z"/><path class="cls-1" d="M168.91,8a.67.67,0,0,1-.47-.2.65.65,0,0,1,0-.93l4.08-4.07a.65.65,0,0,1,.93,0,.67.67,0,0,1,0,.93l-4.08,4.07A.65.65,0,0,1,168.91,8Z"/><path class="cls-1" d="M163.53,12.92a.66.66,0,0,1-.46-.2.65.65,0,0,1,0-.93l3.06-3.06a.66.66,0,0,1,.93.93L164,12.72A.67.67,0,0,1,163.53,12.92Z"/><path class="cls-1" d="M159.7,14.35a.66.66,0,0,1-.47-1.12l3-3a.66.66,0,0,1,.93.93l-3,3A.63.63,0,0,1,159.7,14.35Z"/><path class="cls-1" d="M155.92,14.36a.67.67,0,0,1-.47-.2.65.65,0,0,1,0-.93L157.69,11a.65.65,0,0,1,.93,0,.67.67,0,0,1,0,.93l-2.24,2.23A.66.66,0,0,1,155.92,14.36Z"/><path class="cls-1" d="M168.31,12.17a.66.66,0,0,1-.46-.2.65.65,0,0,1,0-.93l3.61-3.61a.67.67,0,0,1,.93,0,.65.65,0,0,1,0,.93L168.78,12A.67.67,0,0,1,168.31,12.17Z"/><path class="cls-1" d="M167-8.13a.66.66,0,0,1-.46-.2.65.65,0,0,1,0-.93l3.13-3.13a.65.65,0,0,1,.93,0,.65.65,0,0,1,0,.93l-3.13,3.13A.67.67,0,0,1,167-8.13Z"/><path class="cls-1" d="M57.79,221.28l1.06,1.06a3.69,3.69,0,0,0,.08.46l.14.71-.54-.11-1.18-1.18.46,0A6.16,6.16,0,0,1,57.79,221.28Z"/><path class="cls-1" d="M71.45,209l.22.24,1,1-1.32-.18a5.1,5.1,0,0,0-2.29.21A5.27,5.27,0,0,0,67,211.55a5.14,5.14,0,0,0-1.44,4.6l.14.68L65,216.7a5.14,5.14,0,0,0-4.61,1.44A5.21,5.21,0,0,0,59,220.36a5.1,5.1,0,0,0-.18,2l-1.06-1.06a6.16,6.16,0,0,0,0,1l-.46,0,1.18,1.18-.16,0a5.09,5.09,0,0,0-2.45.11,4.31,4.31,0,0,0-.84.33,5.85,5.85,0,0,0-.86.53,5.53,5.53,0,0,0-.52.46,5.16,5.16,0,0,0-1.44,4.61l.14.68-.69-.13a5.13,5.13,0,0,0-4.57,1.45,5.18,5.18,0,0,0-1.53,3.85l0,1.25-.92-.95c-2.33-2.39-3.74-6.74-3.68-11.34a20.47,20.47,0,0,1,1.28-7A18.47,18.47,0,0,1,43.91,214c.18-.28.36-.56.56-.83a16,16,0,0,1,1.75-2.1l.1-.11.6-.57a18.3,18.3,0,0,1,5.76-3.5,22.41,22.41,0,0,1,7.15-1.44C64.64,205.29,69.09,206.64,71.45,209Z"/><path class="cls-1" d="M69,238l.28.28-.7.69-.29-.29ZM44.65,209.48a.91.91,0,0,1,1.24.1l25.67,25.67a2.53,2.53,0,0,1,.25,3.52,2.49,2.49,0,0,1-3.53-.17h0l.69-.69h0a1.45,1.45,0,0,0,2,.12,1.29,1.29,0,0,0,.37-1,1.62,1.62,0,0,0-.48-1l-15-15h0c0-.11-11.37-11.44-11.22-11.43Z"/><path class="cls-1" d="M-15.43,226.71s9.76,4.76,15.15,0c0,0,1.52,2.78,4,.36,0,0,1.52,2.78,3.77.09,0,0,13.55,5.38,16.33-7s-12.48-7.27-12.48-7.27,7.27-9.78-8.07-9.78-9.69,7.27-9.69,7.27-7.45-4.4-7.54-.36c0,0-7-4.58-11-1.26s-3,6.64-3,6.64S-27.61,222.4-15.43,226.71Z"/><circle class="cls-1" cx="108.5" cy="216.7" r="8.21"/><line class="cls-1" x1="117.83" y1="216.7" x2="131.51" y2="216.7"/><rect class="cls-1" x="117.83" y="215.69" width="13.68" height="2.03"/><line class="cls-1" x1="117.26" y1="213.5" x2="130.11" y2="208.81"/><polygon class="cls-1" points="117.61 214.46 116.91 212.55 129.76 207.85 130.46 209.76 117.61 214.46"/><line class="cls-1" x1="115.63" y1="210.69" x2="126.09" y2="201.87"/><polygon class="cls-1" points="116.28 211.47 114.97 209.91 125.43 201.09 126.74 202.65 116.28 211.47"/><line class="cls-1" x1="113.13" y1="208.61" x2="119.92" y2="196.73"/><polygon class="cls-1" points="114.01 209.11 112.25 208.1 119.04 196.23 120.81 197.24 114.01 209.11"/><line class="cls-1" x1="110.07" y1="207.51" x2="112.38" y2="194.02"/><polygon class="cls-1" points="111.07 207.68 109.07 207.34 111.37 193.85 113.38 194.19 111.07 207.68"/><line class="cls-1" x1="106.82" y1="207.53" x2="104.36" y2="194.07"/><polygon class="cls-1" points="105.82 207.71 103.36 194.25 105.36 193.89 107.82 207.34 105.82 207.71"/><line class="cls-1" x1="103.77" y1="208.66" x2="96.84" y2="196.87"/><polygon class="cls-1" points="102.9 209.18 95.96 197.38 97.72 196.35 104.65 208.15 102.9 209.18"/><line class="cls-1" x1="101.3" y1="210.77" x2="90.74" y2="202.07"/><polygon class="cls-1" points="100.65 211.56 90.09 202.86 91.39 201.29 101.94 209.99 100.65 211.56"/><line class="cls-1" x1="99.7" y1="213.6" x2="86.8" y2="209.06"/><polygon class="cls-1" points="99.36 214.56 86.46 210.02 87.14 208.1 100.04 212.65 99.36 214.56"/><line class="cls-1" x1="99.17" y1="216.81" x2="85.49" y2="216.97"/><polygon class="cls-1" points="85.5 217.99 85.48 215.96 99.16 215.8 99.18 217.83 85.5 217.99"/><line class="cls-1" x1="99.78" y1="220.01" x2="86.98" y2="224.85"/><polygon class="cls-1" points="87.34 225.8 86.62 223.9 99.42 219.06 100.14 220.96 87.34 225.8"/><line class="cls-1" x1="101.44" y1="222.8" x2="91.09" y2="231.74"/><polygon class="cls-1" points="91.75 232.51 90.42 230.97 100.78 222.03 102.1 223.57 91.75 232.51"/><line class="cls-1" x1="103.96" y1="224.85" x2="97.31" y2="236.8"/><polygon class="cls-1" points="98.19 237.3 96.42 236.31 103.07 224.36 104.85 225.35 98.19 237.3"/><line class="cls-1" x1="107.03" y1="225.91" x2="104.89" y2="239.42"/><polygon class="cls-1" points="105.89 239.58 103.88 239.27 106.03 225.75 108.04 226.07 105.89 239.58"/><line class="cls-1" x1="110.28" y1="225.86" x2="112.9" y2="239.28"/><polygon class="cls-1" points="111.91 239.48 109.29 226.05 111.28 225.66 113.9 239.09 111.91 239.48"/><line class="cls-1" x1="113.32" y1="224.69" x2="120.39" y2="236.4"/><polygon class="cls-1" points="119.52 236.93 112.45 225.21 114.19 224.16 121.26 235.88 119.52 236.93"/><line class="cls-1" x1="115.77" y1="222.55" x2="126.43" y2="231.12"/><polygon class="cls-1" points="125.79 231.92 115.13 223.34 116.4 221.76 127.06 230.33 125.79 231.92"/><line class="cls-1" x1="117.33" y1="219.7" x2="130.29" y2="224.09"/><polygon class="cls-1" points="129.96 225.06 117 220.66 117.66 218.74 130.61 223.13 129.96 225.06"/><path class="cls-1" d="M200.57,226.71s9.76,4.76,15.15,0c0,0,1.52,2.78,4,.36,0,0,1.52,2.78,3.77.09,0,0,13.55,5.38,16.33-7s-12.48-7.27-12.48-7.27,7.27-9.78-8.07-9.78-9.69,7.27-9.69,7.27-7.45-4.4-7.54-.36c0,0-7-4.58-11-1.26s-3,6.64-3,6.64S188.39,222.4,200.57,226.71Z"/><path class="cls-1" d="M166.08,212.45a.66.66,0,0,1-.47-1.12l3.64-3.64a.67.67,0,0,1,.93,0,.65.65,0,0,1,0,.93l-3.64,3.64A.63.63,0,0,1,166.08,212.45Z"/><path class="cls-1" d="M166.93,215.24a.7.7,0,0,1-.47-.19.68.68,0,0,1,0-.94l2.86-2.85a.66.66,0,0,1,.93.93l-2.85,2.86A.7.7,0,0,1,166.93,215.24Z"/><path class="cls-1" d="M166.86,218.43a.66.66,0,0,1-.47-1.12l3.23-3.23a.66.66,0,0,1,.93.93l-3.23,3.23A.65.65,0,0,1,166.86,218.43Z"/><path class="cls-1" d="M162.22,217a.66.66,0,0,1-.47-1.12l2.53-2.53a.67.67,0,0,1,.93,0,.68.68,0,0,1,0,.94l-2.53,2.52A.65.65,0,0,1,162.22,217Z"/><path class="cls-1" d="M160.84,213.68a.68.68,0,0,1-.46-.19.66.66,0,0,1,0-.94l3.82-3.82a.66.66,0,0,1,.93,0,.65.65,0,0,1,0,.93l-3.82,3.83A.7.7,0,0,1,160.84,213.68Z"/><path class="cls-1" d="M157.8,212.86a.66.66,0,0,1-.47-.19.67.67,0,0,1,0-.93L160,209.1a.67.67,0,0,1,.93,0,.65.65,0,0,1,0,.93l-2.64,2.64A.62.62,0,0,1,157.8,212.86Z"/><path class="cls-1" d="M156.92,218.44a.66.66,0,0,1-.47-1.12l2.2-2.2a.66.66,0,0,1,.93.93l-2.2,2.2A.65.65,0,0,1,156.92,218.44Z"/><path class="cls-1" d="M156.54,222.51a.66.66,0,0,1-.47-1.12l3.23-3.23a.66.66,0,0,1,.93.93L157,222.32A.63.63,0,0,1,156.54,222.51Z"/><path class="cls-1" d="M160.73,222.85a.63.63,0,0,1-.46-.2.65.65,0,0,1,0-.93l3.86-3.86a.67.67,0,0,1,.93,0,.65.65,0,0,1,0,.93l-3.86,3.87A.7.7,0,0,1,160.73,222.85Z"/><path class="cls-1" d="M164.42,224.39a.7.7,0,0,1-.46-.19.66.66,0,0,1,0-.94l3.47-3.47a.66.66,0,1,1,.93.94l-3.47,3.47A.7.7,0,0,1,164.42,224.39Z"/><path class="cls-1" d="M154.9,227.71a.66.66,0,0,1-.46-1.12l3.67-3.68a.67.67,0,0,1,.93,0,.65.65,0,0,1,0,.93l-3.67,3.68A.66.66,0,0,1,154.9,227.71Z"/><path class="cls-1" d="M160.06,226.93a.66.66,0,0,1-.46-1.12l2.15-2.16a.66.66,0,1,1,.93.94l-2.15,2.15A.66.66,0,0,1,160.06,226.93Z"/><path class="cls-1" d="M152.82,218.8a.66.66,0,0,1-.46-1.12l3.53-3.53a.66.66,0,0,1,.93,0,.67.67,0,0,1,0,.93l-3.53,3.53A.66.66,0,0,1,152.82,218.8Z"/><path class="cls-1" d="M153.42,213.62a.66.66,0,0,1-.47-.19.67.67,0,0,1,0-.93l3.33-3.32a.65.65,0,0,1,.93,0,.67.67,0,0,1,0,.93l-3.33,3.32A.62.62,0,0,1,153.42,213.62Z"/><path class="cls-1" d="M162.75,207.77a.7.7,0,0,1-.47-.19.66.66,0,0,1,0-.94l2.81-2.81a.67.67,0,0,1,.93,0,.65.65,0,0,1,0,.93l-2.81,2.82A.7.7,0,0,1,162.75,207.77Z"/><path class="cls-1" d="M158.91,207.52a.66.66,0,0,1-.46-.2.65.65,0,0,1,0-.93l2.78-2.78a.66.66,0,1,1,.93.93l-2.78,2.78A.67.67,0,0,1,158.91,207.52Z"/><path class="cls-1" d="M154.73,207.62a.7.7,0,0,1-.47-.19.65.65,0,0,1,0-.93l2.74-2.74a.66.66,0,0,1,.93.93l-2.74,2.74A.68.68,0,0,1,154.73,207.62Z"/><path class="cls-1" d="M148.59,213.46a.67.67,0,0,1-.46-1.13l3.82-3.82a.66.66,0,0,1,.93.93l-3.82,3.82A.67.67,0,0,1,148.59,213.46Z"/><path class="cls-1" d="M150.31,208.18a.67.67,0,0,1-.47-1.13l3.08-3.07a.65.65,0,0,1,.93,0,.67.67,0,0,1,0,.93L150.78,208A.67.67,0,0,1,150.31,208.18Z"/><path class="cls-1" d="M148.37,218.21a.7.7,0,0,1-.47-.19.68.68,0,0,1,0-.94l2.49-2.48a.66.66,0,0,1,.93.93L148.84,218A.7.7,0,0,1,148.37,218.21Z"/><path class="cls-1" d="M152.05,222.86a.66.66,0,0,1-.46-.19.65.65,0,0,1,0-.93l2.53-2.54a.66.66,0,0,1,.93.93l-2.53,2.54A.7.7,0,0,1,152.05,222.86Z"/><path class="cls-1" d="M148.18,222.65a.7.7,0,0,1-.47-.19.68.68,0,0,1,0-.94L150,219.2a.66.66,0,0,1,.93.93l-2.32,2.33A.7.7,0,0,1,148.18,222.65Z"/><path class="cls-1" d="M151.77,226.71a.67.67,0,0,1-.47-1.13l2.82-2.82a.66.66,0,1,1,.93.94l-2.82,2.81A.63.63,0,0,1,151.77,226.71Z"/><path class="cls-1" d="M170.27,219a.62.62,0,0,1-.46-.19.65.65,0,0,1,0-.93l3.3-3.3a.66.66,0,0,1,.93.93l-3.3,3.3A.66.66,0,0,1,170.27,219Z"/><path class="cls-1" d="M168.91,224a.67.67,0,0,1-.47-.2.65.65,0,0,1,0-.93l4.08-4.07a.65.65,0,0,1,.93,0,.67.67,0,0,1,0,.93l-4.08,4.07A.65.65,0,0,1,168.91,224Z"/><path class="cls-1" d="M163.53,228.92a.66.66,0,0,1-.46-.2.65.65,0,0,1,0-.93l3.06-3.06a.66.66,0,0,1,.93.93L164,228.72A.67.67,0,0,1,163.53,228.92Z"/><path class="cls-1" d="M159.7,230.35a.66.66,0,0,1-.47-1.12l3-3a.66.66,0,0,1,.93,0,.67.67,0,0,1,0,.93l-3,3A.63.63,0,0,1,159.7,230.35Z"/><path class="cls-1" d="M155.92,230.36a.67.67,0,0,1-.47-.2.65.65,0,0,1,0-.93l2.24-2.23a.65.65,0,0,1,.93,0,.67.67,0,0,1,0,.93l-2.24,2.23A.66.66,0,0,1,155.92,230.36Z"/><path class="cls-1" d="M168.31,228.17a.66.66,0,0,1-.46-.2.65.65,0,0,1,0-.93l3.61-3.61a.67.67,0,0,1,.93,0,.65.65,0,0,1,0,.93L168.78,228A.67.67,0,0,1,168.31,228.17Z"/><path class="cls-1" d="M167,207.87a.66.66,0,0,1-.46-.2.65.65,0,0,1,0-.93l3.13-3.13a.66.66,0,1,1,.93.93l-3.13,3.13A.67.67,0,0,1,167,207.87Z"/></pattern></defs><g class="cls-8"><rect class="cls-9" x="0.51" y="0.51" width="1963.68" height="1121.55"/><path d="M1945.76-16.7V1103.83H-16.9V-16.7H1945.76m1-1H-17.92V1104.86H1946.79V-17.72Z" transform="translate(17.92 17.72)"/></g></svg>